<svg width="22" height="22" viewBox="0 0 22 22" fill="none" xmlns="http://www.w3.org/2000/svg">
<g clip-path="url(#clip0)">
<path d="M16.855 15.035C15.733 15.035 14.6314 14.8595 13.5875 14.5146C13.0759 14.3401 12.4471 14.5001 12.1349 14.8208L10.0744 16.3763C7.68478 15.1007 6.21283 13.6292 4.95468 11.2576L6.46437 9.25074C6.8566 8.85903 6.99729 8.28684 6.82873 7.74997C6.48227 6.70055 6.30627 5.59945 6.30627 4.47702C6.30632 3.66617 5.64665 3.00651 4.83585 3.00651H1.47047C0.659666 3.00651 0 3.66617 0 4.47698C0 13.7709 7.56103 21.3319 16.855 21.3319C17.6658 21.3319 18.3254 20.6722 18.3254 19.8614V16.5054C18.3254 15.6947 17.6657 15.035 16.855 15.035Z" fill="#EE380C"/>
<path d="M16.966 5.00641C15.0907 3.13115 12.6027 2.09137 9.95341 2.07398C9.916 2.07373 9.8855 2.10385 9.88508 2.14125C9.88465 2.17925 9.91514 2.21023 9.95313 2.21086C12.2021 2.24805 14.7046 4.09478 16.2911 5.6813C17.8697 7.25991 19.6495 9.75431 19.7028 11.9948C19.7041 12.0507 19.751 12.0948 19.8068 12.0917C19.8583 12.0888 19.8987 12.0461 19.8982 11.9945C19.8747 9.35439 18.8354 6.87588 16.966 5.00641Z" fill="#EE380C"/>
<path d="M14.9537 7.01872C14.1619 6.227 13.1115 5.788 11.9929 5.78066C11.9771 5.78056 11.9642 5.79325 11.9641 5.80905C11.9639 5.82509 11.9767 5.83816 11.9928 5.83845C12.9424 5.85415 13.9989 6.63384 14.6687 7.30367C15.3352 7.9702 16.0866 9.02334 16.1092 9.96929C16.1097 9.99287 16.1295 10.0115 16.1531 10.0102C16.1748 10.009 16.1919 9.99096 16.1917 9.96915C16.1817 8.8545 15.743 7.80804 14.9537 7.01872Z" fill="#EE380C"/>
</g>
<defs>
<clipPath id="clip0">
<rect width="22" height="21.3319" fill="white"/>
</clipPath>
</defs>
</svg>
