<svg width="60" height="81" viewBox="0 0 60 81" fill="none" xmlns="http://www.w3.org/2000/svg">
<path fill-rule="evenodd" clip-rule="evenodd" d="M29.4896 46.1489C27.4745 46.1489 27.6529 46.1952 25.7398 45.9177C24.9998 45.8018 24.5153 45.6861 23.852 45.5012C22.0916 44.9918 20.1785 44.3209 18.6989 43.2793C15.9948 41.405 17.6531 42.7934 15.3572 40.7337L12.2449 36.9616C12.1428 36.7767 12.1172 36.7304 12.0408 36.5686C11.8878 36.2907 11.7347 36.1285 11.607 35.8973C10.8673 34.6476 9.99998 32.2639 9.71918 30.8987C9.03058 27.52 9.15795 24.9051 9.92326 21.5957C10.051 21.0867 10.2804 20.323 10.4845 19.8602C10.6122 19.6055 10.7396 19.328 10.8673 19.0271C10.9947 18.6799 11.0457 18.4718 11.1988 18.1708C11.3518 17.893 11.4539 17.7543 11.5816 17.4765L12.9335 15.3243C13.5968 14.5841 13.7498 14.0053 15.1021 12.825L15.6376 12.2466C15.9184 12.0154 16.0205 11.9225 16.2756 11.6913C16.7858 11.1823 18.0103 10.511 18.6225 10.0251L21.3009 8.6367C21.6071 8.49761 21.8365 8.42824 22.1683 8.28951L23.9284 7.73387C27.4235 6.87764 30.6121 6.90076 34.0815 7.82671C35.4844 8.22014 35.6122 8.33575 36.9641 8.86792C38.2396 9.37696 39.4641 10.1176 40.5612 10.9276L41.2755 11.5291C42.5 12.5013 43.9286 13.9591 44.7959 15.1856C44.9743 15.4403 45.0764 15.6484 45.2805 15.9262C45.8927 16.7593 47.0662 19.0502 47.296 19.8602C48.265 23.077 48.4948 23.4238 48.4948 27.1497C48.4948 28.515 48.2397 30.1349 47.9589 31.2921C47.7805 31.9633 47.6021 32.4724 47.398 33.097C46.4539 35.8742 44.8213 38.3735 42.7804 40.4563C41.3008 41.9603 40.3314 42.5853 38.6734 43.534C38.3416 43.719 38.3416 43.8118 37.9334 43.9968C35.5101 45.2233 32.2194 46.1489 29.4896 46.1489V46.1489ZM24.6937 3.03617C21.2499 3.03617 20.5103 2.0412 17.8062 2.0412C16.4796 2.0412 14.3368 3.26774 13.4947 4.33207C13.1122 4.77175 12.8061 5.09581 12.6274 5.67457C12.0151 7.89608 11.709 9.23823 10.4335 11.1588L9.82122 12.1079C9.74487 12.2235 9.64282 12.3391 9.56612 12.455L7.98482 14.1675C6.81134 15.3243 4.92356 15.7871 3.87745 16.6665C3.75008 16.7824 3.75008 16.7824 3.64803 16.9212C2.19376 18.4486 1.55617 21.9892 2.57659 23.9795L4.28562 26.8722C6.35215 30.6208 4.00518 34.5783 4.00518 37.0082C4.00518 38.8363 5.58683 41.5437 7.06644 42.6084C7.47461 42.9325 7.67868 43.0481 8.23956 43.2331C10.102 43.8581 11.5816 43.6496 13.5458 45.0149C15.0764 46.1027 16.1225 47.5605 16.8368 49.2964L17.245 50.1989C17.449 50.5692 17.6785 50.9391 17.9846 51.2401C18.0613 51.3094 18.3417 51.5179 18.4438 51.5873L19.107 52.0269C19.4642 52.2585 19.847 52.351 20.2295 52.4897L21.352 52.86C22.8826 53.3228 24.0814 53.7163 25.7908 53.5082C27.2447 53.346 27.9337 52.1888 29.0561 51.4948C29.3366 51.3094 29.3876 51.3557 29.6684 51.1938C30.8162 50.6154 31.6582 50.3607 33.1632 50.222C36.5305 49.921 37.8314 51.9344 40.6376 51.1707C41.0714 51.0551 40.9437 51.1245 41.3518 50.9857C41.709 50.8466 41.7857 50.7773 42.0918 50.6154C42.3469 50.4763 42.5764 50.3838 42.8061 50.2451C43.0612 50.0598 43.0866 49.9673 43.4184 49.7823L44.3368 49.0879C44.3621 49.0648 44.3621 49.0417 44.3878 49.0417C46.7601 46.8664 45.9184 44.1587 47.5764 41.7522C48.0099 41.1272 48.4691 40.5025 49.056 39.9238C49.5916 39.3916 50.3569 38.9982 51.0202 38.6047C51.6834 38.2113 52.5254 37.9338 53.061 37.4479L53.163 37.3551C53.8263 36.8229 54.2345 36.3601 54.6937 35.5964C54.8724 35.3189 54.8978 35.2029 55.0255 34.8326C55.5867 33.097 55.6887 32.7733 55.6887 30.8293C55.6887 29.5334 54.9745 28.8621 54.4386 27.8903L53.9794 27.1497C53.903 26.9878 53.8773 26.9416 53.7753 26.7794C53.5459 26.4325 53.5459 26.4094 53.3418 25.9929C52.7806 24.7663 52.5765 23.4007 52.6018 21.9661C52.6275 18.7492 54.1581 16.5971 52.8316 13.3575C51.3263 9.56229 47.9079 10.0251 45.4335 8.79855C44.3111 8.22014 43.2143 7.59513 42.3723 6.64641C41.2755 5.41988 41.1224 4.86459 40.2804 3.56868C40.0763 3.26774 39.9233 2.89744 39.7192 2.64274C39.2857 2.06433 38.8008 1.53216 38.1885 1.16185C36.3265 0.0278051 33.2909 -0.504363 31.2754 0.629686C30.6121 0.976522 30.0255 1.34683 29.3876 1.74026C28.01 2.55025 26.3263 3.03617 24.6937 3.03617V3.03617Z" fill="#FF0000"/>
<path fill-rule="evenodd" clip-rule="evenodd" d="M26.5054 35.5039C26.2503 35.2958 26.2757 35.2723 26.0716 35.0411C25.8422 34.7864 25.7655 34.8095 25.5104 34.5783L19.1331 28.2144C18.7249 27.8209 18.98 27.8672 18.5972 27.7284C19.0821 27.0109 19.7453 26.525 20.3576 25.9C20.8421 25.4141 21.4033 24.7894 21.8879 24.4423C22.0156 24.6272 21.9646 24.581 22.1176 24.7201L26.1226 28.7003C26.4034 28.955 26.2757 28.7003 26.4034 29.0244C26.6838 28.955 27.2197 28.3993 27.5512 28.0987C27.73 27.9365 27.7043 27.8903 27.883 27.7053L32.8831 22.7529C33.0615 22.6142 33.1125 22.5907 33.2656 22.4289C33.8525 21.8504 34.6174 20.9017 35.4084 20.2767C35.5868 20.1149 35.5868 20.1611 35.7656 19.9295L37.9085 17.7774C38.2909 18.0321 40.944 20.6702 41.1991 21.0636C40.6126 21.3876 40.1277 22.1048 39.3881 22.8454C39.0309 23.1695 38.7501 23.2851 38.4187 23.6785C37.4236 24.9051 37.2195 24.8588 36.5819 25.5297C36.1481 25.9463 35.995 26.2703 35.2807 26.9185C35.0513 27.1034 35.0003 27.1266 34.7705 27.3119C34.4137 27.6356 34.2349 27.9597 33.8778 28.3069L32.0667 30.0887C31.888 30.274 31.8116 30.3665 31.6329 30.5515L29.3879 32.7267C29.3879 32.7267 29.3626 32.7499 29.3626 32.7733L26.5054 35.5039V35.5039ZM11.7094 26.3397C11.7094 27.3581 11.8114 28.3531 11.9134 29.3249C11.9644 29.649 12.1175 30.274 12.1942 30.6208C12.2963 31.084 12.3983 31.4077 12.5514 31.8705C12.6788 32.3337 12.7808 32.6574 12.9596 33.0508C13.1636 33.4674 13.24 33.7683 13.4187 34.1849C13.9289 35.2492 15.3575 37.3088 16.0718 38.0263L17.1686 39.1372C17.1686 39.1372 17.1943 39.1604 17.2196 39.1835C17.2196 39.1835 17.2453 39.2066 17.2706 39.2297L19.5666 41.0116C19.7453 41.1272 19.8474 41.22 20.0515 41.3356C22.2707 42.4693 23.6736 43.2099 26.6838 43.5803C31.6329 44.2053 35.0003 43.0018 39.0052 40.4794L41.2502 38.5585C41.2758 38.5354 41.3012 38.5122 41.3012 38.4891C41.3269 38.4891 41.3522 38.466 41.3522 38.4429L41.582 38.1651C41.8371 37.8876 42.0665 37.5866 42.2963 37.2857C42.7808 36.661 43.1636 36.1285 43.6228 35.4345C44.4135 34.1617 45.1534 32.3568 45.5359 30.8755C45.74 30.0424 45.9188 29.0243 45.9951 28.1219C46.2249 25.7382 45.9188 23.7248 45.2298 21.4339C45.1024 20.9942 44.9747 20.5314 44.7963 20.1611C43.8522 18.2402 43.0616 16.7824 41.684 15.2087C40.6126 14.0284 39.4644 13.1259 38.1379 12.2697C37.9338 12.131 37.8317 12.0847 37.6533 11.9457C37.4493 11.8069 37.7044 11.9457 37.4236 11.7838C37.3215 11.7144 37.2962 11.6913 37.1685 11.6451C36.3521 11.2979 35.6635 10.9276 34.8982 10.6035C31.7096 9.28447 27.5769 9.35384 24.2858 10.1869C23.7503 10.326 23.2654 10.4879 22.7809 10.6729C22.245 10.8813 21.7605 11.0432 21.276 11.2748L18.189 13.2882C17.0922 14.1209 16.3012 15.0237 15.3829 16.0881C15.3829 16.0881 15.3575 16.1112 15.3318 16.1343C14.3114 17.3608 13.1636 19.5361 12.6534 21.0173C12.1685 22.5445 11.7094 24.6966 11.7094 26.3397V26.3397Z" fill="#FF0000"/>
<path fill-rule="evenodd" clip-rule="evenodd" d="M33.3932 59.8024C33.4442 60.2886 35.2806 64.3845 35.6378 65.1482L42.3472 80.4678C42.4746 80.8381 42.4492 80.9075 42.8064 81C42.8317 80.6532 42.9084 80.4216 43.0358 80.1438L46.8881 67.2541L55.0257 71.0031C55.689 71.304 56.0462 71.489 56.6327 71.8131L58.2911 72.5302C58.7246 72.7618 59.4389 73.2246 60.0001 73.2477C59.9491 72.7387 59.694 72.3221 59.4899 71.9518C59.2858 71.5352 59.1584 71.188 58.9544 70.7021L52.8572 56.5397C52.398 55.4981 51.4286 53.6007 51.1992 52.6285C50.8163 52.6519 49.7706 53.5313 49.2857 53.8088L48.9542 54.0635C48.9286 54.0866 48.9032 54.1097 48.9032 54.1097C48.2143 54.665 46.3268 55.6834 45.4848 56.1925L42.2705 57.6734C40.8419 58.229 39.0308 58.8074 37.5002 59.1083C36.25 59.3396 34.643 59.8024 33.3932 59.8024Z" fill="#FF0000"/>
<path fill-rule="evenodd" clip-rule="evenodd" d="M0 73.2477C0.586917 73.2015 1.81142 72.4608 2.42367 72.1834L5.74003 70.679C6.04616 70.5403 6.22456 70.4247 6.53069 70.2856L9.77034 68.7353C10.3826 68.4575 12.7296 67.3003 13.1124 67.2541L16.939 80.0744C17.041 80.4216 17.1684 80.63 17.1941 81C17.5766 80.9075 17.4745 80.9075 17.6276 80.5372L20.8166 73.3402C20.995 72.9236 21.148 72.4608 21.3778 71.998C22.3215 70.0775 23.2909 67.5319 24.3113 65.4029C24.3113 65.3798 24.3113 65.3566 24.3113 65.3566C24.3367 65.3332 24.3367 65.3101 24.3367 65.3101C24.3624 65.2869 24.3623 65.2176 24.3877 65.1944L24.7705 64.3382C25.1787 63.2276 25.6379 62.4639 25.9183 61.7002C26.1734 61.0058 26.3775 60.7977 26.4032 60.2886C25.255 60.2655 19.8725 59.1315 18.8521 58.738C18.0614 58.4371 17.3471 58.2521 16.5561 57.9512L11.5561 55.3594L9.69399 54.0172C9.38786 53.7625 9.2348 53.6238 8.80095 53.5313C8.74993 54.1097 7.7552 55.8915 7.44907 56.5628L6.91352 57.8124C6.1482 59.2702 5.25517 61.7002 4.38781 63.3895L1.65835 69.4987C1.37756 70.0081 1.30122 70.1468 1.09713 70.7253C0.995091 70.9568 0.893043 71.1418 0.791001 71.3503C0.714293 71.5584 0.663272 71.7437 0.535896 71.9749C0.357146 72.3683 0.0256864 72.7849 0 73.2477V73.2477Z" fill="#FF0000"/>
</svg>
