<svg width="60" height="63" viewBox="0 0 60 63" fill="none" xmlns="http://www.w3.org/2000/svg">
<path fill-rule="evenodd" clip-rule="evenodd" d="M25.5263 28.7113C26.5352 29.1926 30.4826 28.7315 31.3816 28.5511C31.8859 28.4507 32.215 28.3506 32.6975 28.2303C33.1577 28.1098 33.6403 27.8894 34.0351 27.8491C34.0351 28.8917 34.0788 29.7741 34.1886 30.6363C34.4516 32.6811 34.5834 35.4881 34.8464 37.3929C34.8905 37.754 34.9782 38.4956 34.9782 38.8164C33.8379 38.2551 33.0046 39.3978 32.9168 40.2802C32.2587 40.1196 30.4385 39.0371 29.6492 38.636L26.9517 37.2928C26.7104 37.1524 26.6887 37.0923 26.4034 36.972C25.8554 36.7114 24.5615 35.9694 24.1447 35.8693C24.2105 35.2076 25.5263 34.546 25.5263 28.7113V28.7113ZM9.71488 18.1854C9.71488 17.1828 11.6886 15.0775 12.7191 14.3157C12.9167 14.1551 13.1139 13.9949 13.3989 13.9748C13.465 14.2153 15.0876 16.2605 15.3726 16.6615L16.7542 18.4659C16.9955 18.7866 17.1711 19.0073 17.4124 19.3482L23.5306 27.4283C24.1227 28.1501 23.9912 28.4507 23.9912 29.6736C23.9912 32.0198 22.6973 34.1651 22.5218 34.9269C21.557 33.804 17.0833 27.9096 16.1185 26.606C15.965 26.4256 9.71488 18.4259 9.71488 18.1854V18.1854ZM15.0439 13.4535C15.4167 12.8922 16.557 12.1301 17.1928 11.8093C17.5876 11.589 18.0264 11.4083 18.5087 11.2279L20.0218 10.8672C20.2631 11.2078 20.5481 11.5289 20.8114 11.8896L26.4912 19.1074C26.7982 19.4685 27.0174 19.7691 27.3028 20.1302C28.3113 21.4334 32.2587 26.3054 33.0046 27.4283C32.6315 27.6086 30.4605 27.8491 29.8244 27.8491C28.8159 27.8491 27.522 27.6288 26.6887 27.388C26.0306 27.2076 25.9649 27.1475 25.5921 26.6665C25.3071 26.3054 25.0658 26.0246 24.7808 25.6639C23.6621 24.3005 22.6316 22.9973 21.5349 21.5936L18.2894 17.5237C17.9824 17.1626 17.7631 16.902 17.4781 16.5211C17.2148 16.1604 16.9735 15.8594 16.6885 15.4987L15.4604 13.9748C15.3069 13.7944 15.1534 13.614 15.0439 13.4535V13.4535ZM26.5569 14.396C26.0964 14.095 25.0438 12.6316 24.6273 12.1103C24.408 11.8295 24.1447 11.5487 23.9912 11.288C24.9123 10.6666 26.1184 10.0449 27.171 9.56394C29.2104 8.66143 30.9868 7.95977 33.2675 7.41833C36.4256 6.63639 42.2809 6.3959 45.2852 6.81709C47.149 7.07773 48.8597 7.59903 50.3071 8.32084C51.4038 8.88211 52.3028 9.56394 53.2239 10.3459C54.101 11.0875 54.8465 12.1103 55.4169 13.1327C57.1272 16.2205 57.5 18.9472 57.5 22.6765C57.5 24.7815 56.7985 28.7113 56.2502 30.6363C54.8906 35.348 53.4212 38.3754 50.7677 42.4053C49.2325 44.7313 46.9298 47.3979 44.8466 49.2224C44.6491 49.4028 44.4956 49.5831 44.2983 49.7837C42.5439 51.5481 38.6186 54.4353 36.3596 55.7184C35.4168 56.2598 34.4299 56.9014 33.4431 57.3625C33.2896 57.4227 33.1577 57.463 33.0046 57.5429C29.7807 59.2274 25.3728 60.8111 21.7542 60.8111C20.1973 60.8111 18.7937 60.6707 17.3683 60.37C15.5702 59.969 13.8595 59.0268 12.4561 57.8838L11.0745 56.5003C10.943 56.3401 10.8332 56.1396 10.6797 55.9391C7.41215 50.9868 5.98678 45.6536 7.7629 39.3578C8.11398 38.1349 8.53048 37.0923 8.99102 35.9295C9.69286 34.1449 10.7237 32.4806 11.6008 30.7965L13.9252 26.8267C14.2323 27.0474 17.7194 32.0799 18.2016 32.7816L20.8771 36.5908C21.3597 37.2525 22.5658 37.6337 23.3551 37.9743C23.7062 38.1349 23.9254 38.2151 24.2325 38.3754C25.7019 39.0972 27.193 39.6987 28.6841 40.4004C31.0089 41.4833 33.4431 42.5057 35.7675 43.6484C36.2938 43.9091 36.9736 44.2701 37.566 44.4105C37.566 43.3878 35.943 27.9096 35.8553 27.0672C35.7238 25.8442 35.8553 26.1452 35.2412 25.3632L33.6183 23.358C33.4431 23.1175 33.2675 22.8968 33.092 22.6765C32.7412 22.2153 32.3905 21.8143 32.0174 21.333C31.8422 21.1126 31.7107 20.9319 31.5131 20.7116C31.2939 20.4708 31.2061 20.3105 30.9868 20.0499L28.0263 16.3606C27.807 16.0801 27.8728 16.3606 27.8508 15.9598L30.1972 14.5965C32.9168 13.1327 36.0746 12.2503 39.1886 12.2503C41.1843 12.2503 43.5307 12.6514 45.3072 13.4535C46.0527 13.7742 47.0396 14.2354 47.6316 14.7366C48.2237 15.1977 49.079 15.9797 49.5175 16.5611C50.6579 18.045 51.4475 19.2881 51.8423 21.5536C52.5001 25.4032 50.6362 29.4734 48.5747 32.6012C48.3334 32.9619 48.1142 33.323 47.8509 33.6837L45.4167 36.7715C45.2194 36.9519 45.1974 37.0322 45.0219 37.2327L39.5176 42.6659C39.1228 43.0472 38.2238 43.5685 38.0702 44.0696C38.4867 44.0696 38.2675 44.0696 38.4867 43.9692C42.4561 42.1447 46.7546 38.8567 49.2766 35.4481L50.2414 34.1049C50.3508 33.9444 50.3729 33.9044 50.4827 33.7439C51.0527 32.922 51.5573 32.0198 51.9738 31.0974C52.6316 29.6135 53.0264 28.3506 53.3114 26.5862C53.9475 22.7766 54.123 17.7441 51.7765 14.536C51.1625 13.6742 50.5044 12.9722 49.6931 12.3306C49.671 12.3108 49.6273 12.2705 49.6053 12.2503C48.9912 11.7694 48.3772 11.4886 47.6757 11.1476C45.7457 10.2055 42.4341 9.74431 40.2195 9.98481C39.8247 10.0251 39.4299 9.96466 39.0571 10.0251C36.0966 10.406 34.1229 10.7268 31.4254 12.03L27.3685 13.9949C27.0395 14.1551 26.886 14.3157 26.5569 14.396V14.396ZM8.33324 16.3004C8.09195 16.1201 7.43417 15.0976 7.19288 14.7567C6.84213 14.2153 6.46936 13.7343 6.09625 13.1928C6.35956 12.0901 8.8375 9.58377 9.67082 8.92208C11.0745 7.83952 11.3595 7.5389 13.0919 6.65654C13.6402 6.39589 14.057 6.17555 14.6054 5.93473L16.3377 5.33316L17.4341 6.73682C17.6316 6.99746 17.7851 7.19798 17.9824 7.47878C18.1796 7.69912 18.4209 7.97992 18.5744 8.18044C16.9518 8.32084 13.7717 10.1853 12.4778 11.2078C12.0393 11.5688 11.6665 11.8695 11.2717 12.2705C11.0745 12.471 10.921 12.6114 10.7237 12.8321C10.1097 13.4333 8.50878 15.5588 8.33324 16.3004ZM5.06568 11.4684L3.8816 9.96466C3.46478 9.22302 6.35955 6.015 7.12713 5.43358C7.96045 4.79204 8.50877 4.31073 9.47359 3.80959C10.921 3.08777 12.8289 2.10531 14.4298 1.98507C14.5613 2.48621 15.2411 3.26814 15.3946 3.86971C14.2105 3.90968 11.7323 5.07252 10.5041 5.71438C10.0656 5.95488 9.58338 6.2958 9.16656 6.59642C8.37696 7.13786 7.43417 8.04004 6.79808 8.72188C6.33754 9.22302 5.2192 10.8269 5.06568 11.4684V11.4684ZM9.71488 20.7717C9.49562 21.1126 9.18858 21.4734 8.92527 21.7941L7.7629 23.318C6.86383 24.5209 5.92104 25.9846 5.2192 27.308C4.97792 27.7289 4.75866 28.0298 4.56142 28.4507C3.53053 30.5358 2.34644 32.6412 1.62259 34.8466C1.46907 35.3279 1.29387 35.6487 1.14035 36.17C1.00854 36.6711 0.833314 37.1524 0.701497 37.6136C0.416489 38.4758 0 39.6786 0 40.6211H0.262973C0.307019 39.859 3.83757 33.4832 4.51737 32.3204L5.19718 31.1774C5.43846 30.7965 5.61399 30.4959 5.85528 30.115C6.09624 29.7341 6.31583 29.3932 6.55679 29.0123L9.53933 24.7415C9.93413 24.2001 10.636 23.1175 11.1623 22.7565C11.3595 23.4783 12.7849 24.7617 12.9824 25.5235L8.79377 31.7591C8.57451 32.18 8.39898 32.4406 8.20174 32.8817C7.98248 33.3428 7.82897 33.6837 7.60971 34.1248C5.94274 37.6136 4.97791 41.443 4.97791 45.4531C4.97791 48.4804 4.99994 51.4879 6.0305 54.2348C6.8201 56.2998 7.60971 57.603 9.07879 59.2072C9.07879 59.2072 9.10081 59.2273 9.12283 59.2472L9.51732 59.6281C10.1314 60.2296 10.8552 60.7109 11.6228 61.1318C16.7542 63.9791 23.5964 63.0967 29.0789 61.6131C30.2633 61.2924 31.4254 60.8312 32.5 60.2898C34.5834 59.2472 36.6008 58.0843 38.5528 56.7811C39.5397 56.1194 40.4167 55.498 41.3598 54.7762L43.9913 52.5906C45.3072 51.5481 46.4475 50.2851 47.6536 49.1021C48.5747 48.1798 50.1756 46.2149 50.9432 45.1723C51.1405 44.9117 51.2282 44.7713 51.4255 44.5308C52.8291 42.8265 55.4606 38.3955 56.3817 36.3103C57.5441 33.7237 60 27.9096 60 25.4432V22.9371C60 19.9495 59.4957 17.1425 58.6404 14.2955C57.7413 11.3283 55.8334 8.44109 53.3991 6.53629L52.2371 5.71438C50.1973 4.51125 48.0922 3.60906 45.68 3.22817C43.5087 2.88725 40.6139 2.74685 38.4867 3.24799C35.921 3.86971 33.3333 4.69162 30.9211 5.65426C30.4168 5.85445 30.022 6.015 29.5174 6.23567L22.7851 9.64389C22.456 9.42354 15.0876 0.200522 15.0439 0C12.5656 0 9.29805 1.42348 7.34639 2.72671C6.22806 3.46867 5.48218 4.17033 4.58311 5.09266C3.46478 6.23567 2.65348 7.6793 2.06111 9.14275C1.8859 9.56394 1.82016 9.64389 2.10517 10.0449L5.37271 14.6163C6.64456 16.4009 7.82896 18.2254 9.12283 19.9898C9.32007 20.2504 9.53934 20.5312 9.71488 20.7717V20.7717Z" fill="#FF0000"/>
</svg>
