<svg width="62" height="55" viewBox="0 0 62 55" fill="none" xmlns="http://www.w3.org/2000/svg">
<path d="M60.9998 31.0823C60.9998 36.0814 53.3529 40.133 43.9209 40.133C34.4892 40.133 26.8423 36.0814 26.8423 31.0823C26.8423 26.0833 34.4892 22.0314 43.9209 22.0314C53.3529 22.0314 60.9998 26.0833 60.9998 31.0823Z" fill="white"/>
<path d="M60.9998 31.0823C60.9998 36.0814 53.3529 40.133 43.9209 40.133C34.4892 40.133 26.8423 36.0814 26.8423 31.0823C26.8423 26.0833 34.4892 22.0314 43.9209 22.0314C53.3529 22.0314 60.9998 26.0833 60.9998 31.0823Z" stroke="#FF0000" stroke-miterlimit="10"/>
<path d="M60.9998 26.7759C60.9998 31.7749 53.3529 35.8265 43.9209 35.8265C34.4892 35.8265 26.8423 31.7749 26.8423 26.7759C26.8423 21.7771 34.4892 17.7255 43.9209 17.7255C53.3529 17.7255 60.9998 21.7771 60.9998 26.7759V26.7759Z" fill="white"/>
<path d="M60.9998 26.7759C60.9998 31.7749 53.3529 35.8265 43.9209 35.8265C34.4892 35.8265 26.8423 31.7749 26.8423 26.7759C26.8423 21.7771 34.4892 17.7255 43.9209 17.7255C53.3529 17.7255 60.9998 21.7771 60.9998 26.7759V26.7759Z" stroke="#FF0000" stroke-miterlimit="10"/>
<path d="M60.9998 22.828C60.9998 27.8268 53.3529 31.8796 43.9209 31.8796C34.4892 31.8796 26.8423 27.8268 26.8423 22.828C26.8423 17.8289 34.4892 13.7774 43.9209 13.7774C53.3529 13.7774 60.9998 17.8289 60.9998 22.828Z" fill="white"/>
<path d="M60.9998 22.828C60.9998 27.8268 53.3529 31.8796 43.9209 31.8796C34.4892 31.8796 26.8423 27.8268 26.8423 22.828C26.8423 17.8289 34.4892 13.7774 43.9209 13.7774C53.3529 13.7774 60.9998 17.8289 60.9998 22.828Z" stroke="#FF0000" stroke-miterlimit="10"/>
<path d="M60.9998 17.9044C60.9998 22.9034 53.3529 26.9547 43.9209 26.9547C34.4892 26.9547 26.8423 22.9034 26.8423 17.9044C26.8423 12.9053 34.4892 8.85339 43.9209 8.85339C53.3529 8.85339 60.9998 12.9053 60.9998 17.9044V17.9044Z" fill="white"/>
<path d="M60.9998 17.9044C60.9998 22.9034 53.3529 26.9547 43.9209 26.9547C34.4892 26.9547 26.8423 22.9034 26.8423 17.9044C26.8423 12.9053 34.4892 8.85339 43.9209 8.85339C53.3529 8.85339 60.9998 12.9053 60.9998 17.9044V17.9044Z" stroke="#FF0000" stroke-miterlimit="10"/>
<path d="M60.9998 13.5985C60.9998 18.5976 53.3529 22.6492 43.9209 22.6492C34.4892 22.6492 26.8423 18.5976 26.8423 13.5985C26.8423 8.59944 34.4892 4.54755 43.9209 4.54755C53.3529 4.54755 60.9998 8.59944 60.9998 13.5985Z" fill="white"/>
<path d="M60.9998 13.5985C60.9998 18.5976 53.3529 22.6492 43.9209 22.6492C34.4892 22.6492 26.8423 18.5976 26.8423 13.5985C26.8423 8.59944 34.4892 4.54755 43.9209 4.54755C53.3529 4.54755 60.9998 8.59944 60.9998 13.5985Z" stroke="#FF0000" stroke-miterlimit="10"/>
<path d="M38.4378 35.8268C38.4378 45.643 30.4493 53.6 20.5946 53.6C10.7404 53.6 2.75232 45.643 2.75232 35.8268C2.75232 26.0118 10.7404 18.054 20.5946 18.054C30.4493 18.054 38.4378 26.0118 38.4378 35.8268Z" fill="white"/>
<path d="M38.4378 35.8268C38.4378 45.643 30.4493 53.6 20.5946 53.6C10.7404 53.6 2.75232 45.643 2.75232 35.8268C2.75232 26.0118 10.7404 18.054 20.5946 18.054C30.4493 18.054 38.4378 26.0118 38.4378 35.8268Z" stroke="#FF0000" stroke-miterlimit="10"/>
<path d="M35.1576 35.0659C35.1576 44.4616 27.5109 52.0772 18.0789 52.0772C8.64603 52.0772 1 44.4616 1 35.0659C1 25.6711 8.64603 18.0546 18.0789 18.0546C27.5109 18.0546 35.1576 25.6711 35.1576 35.0659Z" fill="white"/>
<path d="M35.1576 35.0659C35.1576 44.4616 27.5109 52.0772 18.0789 52.0772C8.64603 52.0772 1 44.4616 1 35.0659C1 25.6711 8.64603 18.0546 18.0789 18.0546C27.5109 18.0546 35.1576 25.6711 35.1576 35.0659Z" stroke="#FF0000" stroke-miterlimit="10"/>
<path d="M10.0502 24.743L11.5095 33.0302L5.23315 38.9913L13.8459 39.7193L17.6415 47.5703L21.1442 40.1551L29.4649 38.9913L23.6252 33.3208L24.9399 25.1792L17.6415 28.8146L10.0502 24.743Z" fill="white"/>
<path d="M10.0502 24.743L11.5095 33.0302L5.23315 38.9913L13.8459 39.7193L17.6415 47.5703L21.1442 40.1551L29.4649 38.9913L23.6252 33.3208L24.9399 25.1792L17.6415 28.8146L10.0502 24.743Z" stroke="#FF0000" stroke-miterlimit="10"/>
<path d="M60.9998 9.65035C60.9998 14.6494 53.3529 18.701 43.9209 18.701C34.4892 18.701 26.8423 14.6494 26.8423 9.65035C26.8423 4.65128 34.4892 0.599998 43.9209 0.599998C53.3529 0.599998 60.9998 4.65128 60.9998 9.65035V9.65035Z" fill="white"/>
<path d="M60.9998 9.65035C60.9998 14.6494 53.3529 18.701 43.9209 18.701C34.4892 18.701 26.8423 14.6494 26.8423 9.65035C26.8423 4.65128 34.4892 0.599998 43.9209 0.599998C53.3529 0.599998 60.9998 4.65128 60.9998 9.65035V9.65035Z" stroke="#FF0000" stroke-miterlimit="10"/>
<path d="M35.8925 4.15844L37.353 8.56772L31.0754 11.7392L39.6882 12.1259L43.4838 16.303L46.9865 12.3583L55.3075 11.7392L49.4687 8.72225L50.7822 4.38962L43.4838 6.32398L35.8925 4.15844Z" fill="white"/>
<path d="M35.8925 4.15844L37.353 8.56772L31.0754 11.7392L39.6882 12.1259L43.4838 16.303L46.9865 12.3583L55.3075 11.7392L49.4687 8.72225L50.7822 4.38962L43.4838 6.32398L35.8925 4.15844Z" stroke="#FF0000" stroke-miterlimit="10"/>
</svg>
