<svg width="60" height="45" viewBox="0 0 60 45" fill="none" xmlns="http://www.w3.org/2000/svg">
<path fill-rule="evenodd" clip-rule="evenodd" d="M6.29841 36.37V33.3919C6.29841 33.0476 6.56878 33.1287 7.19984 33.1287V36.6332C6.56878 36.6332 6.29841 36.7143 6.29841 36.37ZM29.7176 10.1357L29.9653 11.4524C30.0557 11.8576 30.1233 12.4248 30.1683 12.83C30.236 13.8836 30.191 14.714 30.0556 15.7676C29.7626 18.077 29.2442 19.3126 28.2975 21.2777L27.3734 22.7971C27.1481 23.1414 26.9451 23.3846 26.6971 23.7086C25.773 24.9242 24.5559 25.9372 23.3388 26.8487C23.0004 27.1119 22.7301 27.2739 22.3244 27.4968C20.2959 28.7124 19.7772 28.753 17.7487 29.3405C16.2159 29.786 15.6298 29.6443 14.1424 29.786C13.7817 29.8266 11.0768 29.6037 10.5358 29.4214C10.0851 29.2593 9.61169 29.1785 9.20598 29.0567C7.51551 28.4895 6.2531 27.8817 4.83329 26.9093C4.22459 26.4841 3.32287 25.6331 2.93982 25.5523V33.1287H4.72062V39.753C4.72062 39.9556 4.78798 40.0165 4.99098 40.0165C12.5419 40.0165 9.58903 40.5025 10.7611 37.9499C11.0541 37.2815 11.1218 37.1398 11.5275 36.6332C11.6629 36.4914 11.7079 36.4106 11.8432 36.2483C12.7223 35.2559 14.3451 34.4455 15.6749 34.4455C17.839 34.4455 19.3038 35.1138 20.5889 36.7346C20.7466 36.9372 20.9493 37.3018 21.0846 37.545C21.4903 38.2337 21.6933 39.1858 21.6933 40.0165H36.8852V9.8725H29.7176V10.1357V10.1357Z" fill="#FF0000"/>
<path fill-rule="evenodd" clip-rule="evenodd" d="M39.9734 26.2612V19.5355C39.9734 19.3329 40.0408 19.272 40.2438 19.272H46.0592C47.051 19.272 48.3358 20.3459 49.0118 20.9131L51.266 23.3034C51.694 23.7898 53.5425 26.0383 53.6775 26.5044L40.5818 26.5244C40.2438 26.5244 39.9734 26.5853 39.9734 26.2612ZM37.4939 40.0165H44.7518C44.9545 37.5653 45.9013 36.1674 47.9301 35.0532C49.3499 34.2631 51.5364 34.2226 52.9338 35.0127C53.2045 35.1544 53.5425 35.3367 53.7679 35.4987C54.5566 36.066 54.3539 35.9851 54.8046 36.4711C55.278 37.0181 55.2556 37.0384 55.616 37.7476C55.8867 38.2134 56.1347 39.3072 56.1347 40.0165H59.6733C59.6733 39.7124 59.8087 39.3072 59.831 39.0441C59.8763 38.6794 59.8987 38.2742 59.9214 38.0108C59.989 37.4639 60.034 36.2686 59.9664 35.9039C59.696 34.3846 59.9664 33.9391 59.2903 31.9537C58.5689 29.7657 57.7575 28.4287 56.5404 26.6259C56.3601 26.3421 56.2247 26.2004 56.0444 25.9169C54.9173 24.2555 53.3172 22.2907 51.8294 20.8319C50.6573 19.6569 49.4175 18.5225 47.9074 17.8338C47.5694 17.6718 46.4649 17.2666 46.0592 17.2666H37.4939V40.0165V40.0165Z" fill="#FF0000"/>
<path fill-rule="evenodd" clip-rule="evenodd" d="M13.5564 2.19462C15.382 2.19462 15.3146 2.15405 17.0727 2.55924C22.1668 3.77484 26.0211 8.77864 26.0211 13.7822C26.0211 15.727 25.4124 17.7933 24.5333 19.4746C22.9782 22.3919 19.3943 25.1268 16.0357 25.4711C14.5482 25.6129 15.3146 25.6331 13.4661 25.6331L11.0319 25.2685C6.63656 24.0326 3.61602 20.8725 2.46658 16.4562C2.19621 15.4635 2.30889 15.2409 2.24122 14.5926C2.1509 13.7619 2.17355 13.3972 2.26358 12.5871C2.28623 12.2628 2.37655 11.7362 2.46658 11.3918C2.5566 11.0069 2.62426 10.6423 2.73694 10.2777L3.1653 9.20383C3.50334 8.33286 4.22472 7.29958 4.81077 6.55005C6.68159 4.09887 10.3555 2.19462 13.5564 2.19462V2.19462ZM28.1399 14.1468L28.0273 12.1617C27.6889 9.50788 26.4945 6.57035 24.6237 4.70667C24.2403 4.32176 24.353 4.26089 23.812 3.8557C23.6093 3.69368 23.5192 3.6331 23.3389 3.43051C22.7075 2.78213 21.1751 1.85029 20.3183 1.4451C19.552 1.06019 18.8082 0.776434 17.9065 0.513262C15.878 -0.0336665 14.0072 -0.135112 11.9333 0.168933C11.4826 0.229507 11.2123 0.270083 10.8066 0.371529C8.25937 1.01961 6.02787 2.17434 4.15705 3.99772L2.91729 5.39533C1.36215 7.4616 1.02412 8.39373 0.392764 10.5814C-0.350972 13.1744 0.00971595 16.8208 1.06913 19.3126C2.21857 21.9867 4.63041 24.7216 7.29028 26.0789C7.87632 26.3827 8.37206 26.6259 9.02577 26.869C9.72449 27.1322 10.2655 27.2942 11.0769 27.4765C13.2858 27.9832 15.6976 27.8817 17.9292 27.2539C18.9436 26.9905 19.7773 26.6461 20.7017 26.1598C21.0397 25.9978 21.1974 25.856 21.5355 25.6737C22.3472 25.2482 23.767 24.0326 24.398 23.3643C25.097 22.6147 26.1111 21.1966 26.5395 20.3256C26.8552 19.6975 27.0805 19.2114 27.3509 18.5025C27.7793 17.3678 28.1399 15.4635 28.1399 14.1468V14.1468Z" fill="#FF0000"/>
<path fill-rule="evenodd" clip-rule="evenodd" d="M50.477 42.2042C47.5467 42.2042 47.5694 37.8488 50.4093 37.8488C52.3928 37.8488 53.3622 40.1379 52.0547 41.4952C51.7394 41.8193 51.108 42.2042 50.477 42.2042V42.2042ZM50.0486 45C51.8294 45 52.9338 44.6757 54.1286 43.4401C54.737 42.8323 55.278 41.8396 55.4133 41.0495C55.7064 39.287 55.233 37.6665 53.9932 36.4712C51.4464 33.9591 46.9157 34.6684 45.5632 38.6592C45.2702 39.5504 45.3605 40.8672 45.7209 41.8396C46.3973 43.5615 48.3358 45 50.0486 45V45Z" fill="#FF0000"/>
<path fill-rule="evenodd" clip-rule="evenodd" d="M16.0356 37.8488C19.0335 37.8488 18.9435 42.2042 16.0356 42.2042C14.9088 42.2042 13.8718 41.1712 13.8494 40.0165C13.8267 39.1046 14.7285 37.8488 16.0356 37.8488ZM15.6749 45C17.5234 45 18.4925 44.6959 19.7549 43.4401C21.558 41.6775 21.6481 38.5577 19.6422 36.4509C17.8841 34.6278 14.5705 34.486 12.6096 36.3903C10.8515 38.0919 10.5358 40.5837 11.7529 42.6703C12.4293 43.825 14.2551 45 15.6749 45Z" fill="#FF0000"/>
<path fill-rule="evenodd" clip-rule="evenodd" d="M6.47888 8.4746C6.47888 9.30528 7.49298 10.0345 8.14669 10.6829L11.9333 14.4305C14.5029 16.9629 13.8495 16.7806 18.6052 12.0602C19.3716 11.331 21.5131 9.4673 21.6481 8.6772C21.7611 7.94796 21.2877 7.52247 20.4537 7.52247C19.7773 7.52247 17.7488 9.79134 17.2078 10.318L14.0748 13.357L9.47648 8.83922C8.73275 8.10998 8.43972 7.52247 7.44797 7.52247C6.92959 7.52247 6.47888 7.96825 6.47888 8.4746V8.4746Z" fill="#FF0000"/>
<path fill-rule="evenodd" clip-rule="evenodd" d="M21.6934 40.8874C21.6934 41.8396 21.558 42.2853 21.9411 42.2853H36.6149C37.0206 42.2853 36.8853 41.8396 36.8853 40.8874C36.8853 40.6848 36.8176 40.624 36.6149 40.624H21.9411C21.7384 40.624 21.6934 40.6848 21.6934 40.8874Z" fill="#FF0000"/>
<path fill-rule="evenodd" clip-rule="evenodd" d="M37.9447 15.4435H45.5406C45.4733 14.5925 42.9261 12.9518 42.34 12.5871C41.461 12.0399 39.0041 10.8246 37.9447 10.8246V15.4435Z" fill="#FF0000"/>
</svg>
