<svg width="60" height="60" viewBox="0 0 60 60" fill="none" xmlns="http://www.w3.org/2000/svg">
<path fill-rule="evenodd" clip-rule="evenodd" d="M28.7463 36.8H28.9707C29.0831 37.1236 29.8692 37.4301 30.6924 37.0553C30.9172 36.9533 31.0105 36.8338 31.1789 36.7318C31.3101 37.0045 32.1522 41.6895 32.3021 42.337C32.433 42.9162 33.0506 45.6079 32.9382 45.9489C32.5826 46.9879 31.5721 49.1178 31.1041 50.3783L30.3744 52.1163C30.0376 52.1163 29.8692 52.0822 29.6256 52.2013L27.4734 46.9541C27.3614 46.6473 27.193 46.3745 27.0994 46.0851C26.931 45.6079 27.3986 43.8702 27.5298 43.0695C27.8103 41.485 28.3343 39.4234 28.5779 37.8902C28.6527 37.5496 28.7463 37.1065 28.7463 36.8V36.8ZM23.9176 19.4221C23.9176 21.1427 23.6744 23.46 24.4044 24.9591L25.1341 26.1858C25.2653 26.3732 25.2841 26.4585 25.4337 26.6289L26.257 27.6341C26.7438 28.1792 27.0242 28.2645 26.9682 29.082C26.8558 31.0753 27.0242 32.8304 24.9845 33.8523C24.498 34.0909 24.0112 34.1592 23.4312 34.2612C23.2067 34.3124 23.0755 34.3636 22.8323 34.4148C22.4207 34.4998 22.1771 34.5851 21.7842 34.6872L20.7362 35.0282C19.5385 35.5221 18.2472 36.0672 17.1991 36.8509L15.7955 37.9073C15.7019 37.9926 15.7394 37.9585 15.6831 38.0264C15.365 38.3844 15.1406 39.5429 15.103 40.1733C15.0842 40.5481 15.0094 40.94 14.9534 41.3318C14.785 42.4732 14.6726 46.2554 14.6726 47.7207C14.6726 48.6235 14.6726 49.5267 14.6726 50.4295C14.3545 50.3612 13.5121 49.6287 13.2129 49.3222C12.8573 48.9642 12.9881 48.2146 12.9881 47.7207L12.9696 45.3014C12.9881 44.9096 13.0445 44.8754 13.0632 44.5007C13.0817 43.3931 13.0069 42.3199 13.1381 41.2977C13.2689 40.4116 13.2501 39.2531 13.5497 38.4015C13.9989 37.1407 17.8916 35.0449 18.1536 34.6531C18.4528 34.2274 18.322 33.8356 18.4156 33.2222C18.4904 32.7963 19.1641 32.2341 19.4637 31.8423C21.0542 29.8148 20.6802 28.9799 20.6802 25.8793C20.6802 25.0615 20.5117 24.4823 20.3058 23.8518C20.0625 23.1702 19.8941 22.7442 19.5197 22.1991C19.2017 21.7052 18.8085 21.2963 18.266 21.0407C17.4051 20.6488 14.317 20.6147 13.5873 21.0577C12.4268 21.7561 11.5847 23.886 11.5847 25.2997V29.4738C11.5847 29.7977 12.1648 30.9732 12.3144 31.2289L13.1193 32.2508C13.2501 32.3703 13.3437 32.4553 13.4937 32.5577C13.8117 32.7963 13.8493 32.8983 13.8677 33.4267C13.8865 33.9035 13.7929 34.108 13.7929 34.6022C13.7741 36.1525 12.7264 36.9021 11.3227 37.1236C10.6675 37.2256 10.0127 37.4301 9.41381 37.7028C8.62776 38.0776 6.73762 39.3043 6.53162 39.8835H6.382C6.32564 39.645 6.26961 39.6279 6.1948 39.4064C6.11999 39.219 6.08241 39.0828 6.0076 38.9295L5.48355 37.4134C5.42753 37.2089 5.40874 37.0383 5.33393 36.8171C5.07191 36.0331 4.66028 34.1933 4.6227 33.3584C4.56668 32.4894 4.39825 31.7057 4.39825 30.7859C4.39825 29.2864 4.47308 27.8894 4.6227 26.4073L5.29635 23.2555C5.59594 22.2845 5.85797 21.2793 6.26961 20.359C6.45681 19.9672 6.60643 19.6607 6.75606 19.2859L7.35524 18.0592C8.0289 16.8325 8.74015 15.6228 9.61946 14.5326C9.73185 14.379 9.80665 14.2599 9.93783 14.1066L11.36 12.4539C11.6783 12.045 12.09 11.6703 12.5016 11.3296C13.6245 10.3923 14.6726 9.37041 15.9451 8.60345C16.9183 8.00715 17.8356 7.42793 18.8833 6.93403C20.7362 6.06501 22.6263 5.41786 24.6101 4.95775C25.1717 4.83829 26.6314 4.58298 27.2862 4.54885C27.8478 4.53178 28.1099 4.39559 28.6711 4.39559C29.794 4.39559 31.1041 4.27613 32.171 4.51471C32.4518 4.56591 32.5642 4.53178 32.8634 4.54885C33.6495 4.61711 35.3712 4.92362 36.0824 5.12807C36.2884 5.19634 36.5128 5.23013 36.7373 5.2984L39.0394 6.06501C39.8627 6.37186 40.4615 6.62718 41.1916 6.98523C41.566 7.17262 41.8652 7.3088 42.2208 7.51326C42.3332 7.56446 42.3705 7.58152 42.4641 7.63238C42.4828 7.64945 42.5389 7.68358 42.5577 7.70065C42.5764 7.70065 42.5952 7.71771 42.5952 7.71771C43.4185 8.24574 44.2794 8.72292 45.0466 9.30215L47.1428 11.0228C49.2949 12.982 50.7362 14.8562 52.2707 17.3946C53.4312 19.3201 54.8721 22.9999 55.1717 25.283C55.4709 27.5829 55.6021 27.9918 55.6021 30.4961C55.6021 31.5183 55.5457 32.6939 55.3585 33.6991C55.0965 35.079 54.8345 36.442 54.3856 37.7882L53.618 39.8835C53.3188 39.7986 53.244 39.577 53.2252 39.56C53.0755 39.4064 53.2252 39.5429 53.0568 39.4064C52.8323 39.219 52.7199 39.0828 52.4951 38.8783C52.1023 38.5548 51.6906 38.2479 51.2226 38.0264C49.2949 37.0383 48.0784 37.1748 47.33 36.6464C47.2176 36.5785 47.3112 36.6464 47.1991 36.5444C46.0387 35.6074 46.3383 34.4828 46.1883 33.5287C46.0199 32.5577 46.7123 32.6259 47.386 31.6037C47.7792 31.0074 48.2284 30.1554 48.322 29.3717C48.3405 29.2693 48.322 29.2864 48.322 29.2014L48.3405 28.4519C48.3405 27.1398 48.4341 25.4192 48.1536 24.3799C48.0036 23.8348 47.798 23.2726 47.536 22.8808C47.4611 22.7784 47.4048 22.6763 47.33 22.5739C46.5815 21.5175 45.8703 21.6711 45.2151 21.5175C44.9718 21.4666 45.0282 21.4325 44.7474 21.4154L43.3065 21.2451C42.7449 21.1427 42.8573 21.0065 42.202 21.211C41.2664 21.4837 40.7423 21.9097 40.2371 22.7613C39.0766 24.6867 39.3202 26.6118 39.3202 28.8096C39.3202 30.4111 39.9563 31.1948 40.7984 32.1829L41.2103 32.643C42.2208 33.6311 40.7235 33.7844 42.67 35.062C43.5497 35.6245 44.373 36.2375 45.103 36.9533L45.1778 37.0383C45.1966 37.0383 45.1966 37.0553 45.2151 37.0724C45.2714 37.1407 45.2902 37.1577 45.3462 37.2256C45.5334 37.4134 45.6831 37.5496 45.7955 37.8052C46.1135 38.4865 46.4879 42.0131 46.5067 42.8138L46.8995 49.1686C46.862 49.3222 46.6563 49.4413 46.5439 49.5267L46.4691 49.5946C46.4503 49.5946 46.4315 49.6117 46.4315 49.6287L45.6083 50.2762C45.365 50.4807 45.6083 50.4124 45.2526 50.4295C45.2526 48.8792 45.1402 47.7545 45.1218 46.2554L44.841 42.2005C44.6538 40.9912 44.7474 39.56 44.3542 38.3674C44.2046 37.9073 43.9613 37.754 43.6057 37.4984L40.6863 35.5904L39.1514 34.9087C38.3657 34.6193 37.4673 34.3636 36.6064 34.2442C34.3795 33.9377 33.2378 32.4044 33.0694 30.2066C33.0506 29.968 33.013 29.5079 32.9758 29.2014C32.9194 28.8437 33.013 28.6222 33.013 28.2304C33.3314 28.06 33.5746 27.8556 33.8739 27.617L34.5479 26.8333C35.4272 25.6066 36.0824 24.0733 36.0824 22.506L36.1196 18.962C35.97 17.6673 35.5584 16.1 34.9407 14.9924C34.4543 14.1066 34.1175 13.5783 33.3498 12.9311C33.0878 12.6925 32.7326 12.5222 32.3769 12.4369C31.5345 12.1983 28.5779 12.2666 27.6046 12.4198C26.8374 12.5393 26.1634 13.0332 25.7145 13.6124C25.5645 13.7827 25.4897 13.8339 25.3773 14.0042C24.8721 14.7879 24.4604 15.674 24.2544 16.6792C24.0676 17.565 23.9176 18.3998 23.9176 19.4221V19.4221ZM0 28.8775V31.0924C0 31.7399 0.093613 32.1488 0.13119 32.6939L1.06685 38.0097C1.34766 39.0828 1.79689 40.2242 2.17095 41.2977C2.54536 42.2858 3.36899 44.0064 3.93025 44.8925C4.3419 45.5738 4.7163 46.2895 5.20276 46.92L6.06361 48.1126C6.21358 48.317 6.30719 48.4191 6.45681 48.6065C7.11168 49.4584 7.8417 50.2421 8.57139 51.0258L9.39501 51.8265C9.39501 51.8436 9.4138 51.8436 9.43259 51.8607L14.8037 55.8815C14.897 55.9323 14.9722 55.9665 15.0842 56.0347C15.2902 56.1709 15.4398 56.2392 15.627 56.3583C16.5815 56.9375 17.6484 57.3464 18.6588 57.8066C20.1373 58.4711 21.8403 58.9138 23.4124 59.2886L26.4818 59.817C27.1178 59.8682 27.5858 59.9702 28.1659 59.9702C29.4948 59.9702 31.4409 60.0893 32.6762 59.8511C32.9946 59.7999 33.2002 59.834 33.5183 59.817L35.8016 59.4592C36.0448 59.391 36.3068 59.3739 36.5316 59.3057C37.8977 58.965 39.3574 58.5902 40.6487 58.0622C41.9964 57.5168 43.3437 56.9546 44.6162 56.2392L48.6025 53.5642C48.7897 53.411 48.9209 53.3256 49.0893 53.1724L53.4872 48.6918C53.6368 48.4873 53.7116 48.402 53.88 48.1976C54.2732 47.6695 54.6849 47.1924 55.0217 46.6131L56.0138 44.9775C57.1178 43.291 58.2595 40.3266 58.8023 38.4524C59.1016 37.3963 59.4196 36.3058 59.5696 35.1985C59.6068 34.9258 59.6444 34.636 59.7004 34.3807C59.9624 33.1028 60 30.2745 60 28.8775C60 28.06 59.7004 25.7598 59.5696 24.84L58.9144 21.9097C58.8396 21.6199 58.8023 21.5516 58.7087 21.2281C58.2595 19.4392 57.1926 17.1902 56.313 15.5716L55.3025 13.8681C55.0781 13.4933 54.8345 13.1356 54.5725 12.7775L53.9924 11.96C53.9737 11.943 53.9736 11.9259 53.9552 11.9088L52.0463 9.64279C52.0463 9.62572 52.0275 9.60866 52.0087 9.60866L50.287 7.87097C50.2122 7.80304 50.2494 7.83683 50.1746 7.76891L48.8273 6.62718C48.7337 6.54219 48.7524 6.55925 48.7149 6.52512L47.4048 5.55405C46.7687 5.07688 45.9639 4.51471 45.2339 4.13994C45.0094 4.02082 44.8598 3.96961 44.6538 3.83308L44.111 3.49244C42.2584 2.5043 40.3307 1.82302 38.3657 1.17552C37.1493 0.783681 35.8952 0.562163 34.6415 0.340642C34.3795 0.30651 34.1359 0.323576 33.8179 0.289443C33.481 0.255311 33.4998 0.153255 33.013 0.153255C32.2646 0.153255 31.965 0 31.3289 0L26.3506 0.255311C26.0325 0.340642 25.8081 0.272377 25.4709 0.323576L21.4662 1.22672C19.5945 1.72062 17.7604 2.52137 16.0199 3.40745C15.9266 3.45831 15.833 3.52657 15.7582 3.57777C13.8117 4.73623 11.8092 5.89469 10.1811 7.46206C9.46983 8.12662 8.74013 8.75705 8.08492 9.48953L7.9541 9.64279C7.59848 10.0346 8.23456 9.33628 7.87894 9.71105L7.26165 10.4265C6.13877 11.7556 4.82869 13.3738 4.06143 14.9074C3.64944 15.7081 3.18178 16.4406 2.80737 17.2584C2.41452 18.1104 2.09613 18.9449 1.7593 19.8139C1.32887 20.9895 0.59919 23.4088 0.430434 24.7034C0.393198 25.0444 0.374417 25.2318 0.318393 25.5383L0 28.8775V28.8775Z" fill="#FF0000"/>
</svg>
