<svg width="23" height="22" viewBox="0 0 23 22" fill="none" xmlns="http://www.w3.org/2000/svg">
<path d="M21.8991 19.0663C22.1559 18.7822 22.1345 18.3387 21.8504 18.0804L15.9638 12.7334C15.6801 12.4766 15.2393 12.4981 14.9821 12.7821L12.8796 15.1054C12.6224 15.3895 12.6442 15.8314 12.9282 16.0898L18.8145 21.4367C19.097 21.6935 19.5394 21.6732 19.7962 21.3896L21.8991 19.0663V19.0663Z" fill="#FF0000"/>
<path d="M7.78745 2.36536C7.16378 2.36536 6.54587 2.46963 5.95096 2.67509V2.67663C4.53229 3.16613 3.39115 4.18039 2.73375 5.52968C2.07942 6.87935 1.98742 8.40343 2.47845 9.82057C3.2612 12.0845 5.39399 13.6043 7.78745 13.6043C8.40919 13.6043 9.0275 13.4989 9.62356 13.2931C11.0422 12.8024 12.1838 11.7882 12.8392 10.4385C13.4951 9.09035 13.5871 7.56511 13.0949 6.14797C12.3133 3.88561 10.1794 2.36536 7.78745 2.36536V2.36536ZM7.78745 0.277802C10.9813 0.277802 13.9658 2.27759 15.0694 5.4649C16.462 9.4867 14.3284 13.8746 10.3066 15.2676C9.47367 15.5554 8.62155 15.6923 7.78745 15.6923C4.59323 15.6923 1.60755 13.6921 0.503968 10.5048C-0.887486 6.48185 1.24493 2.09359 5.26788 0.70214C6.10122 0.412733 6.95181 0.277802 7.78745 0.277802Z" fill="#FF0000"/>
</svg>
