<svg width="40" height="40" viewBox="0 0 40 40" fill="none" xmlns="http://www.w3.org/2000/svg">
<path fill-rule="evenodd" clip-rule="evenodd" d="M21.3671 40V24.4921H16.1228L16.1325 18.4765H21.3477C21.3768 16.9024 21.2978 13.6726 21.4887 12.348C21.991 8.86868 24.2824 6.60639 27.7739 6.1412C29.1443 5.95868 32.35 6.09967 33.7633 6.2755C33.825 6.47042 33.7891 11.072 33.7891 11.6796C32.7097 11.6796 31.6256 11.6695 30.5469 11.6802C27.7601 11.707 27.6171 13.1083 27.6171 15.2343C27.6171 16.315 27.6171 17.3958 27.6171 18.4765L33.5788 18.4758L32.8008 24.4817L27.6171 24.4924V40H27.7675H27.9175H28.0676H28.2176H28.368H28.518H28.6681H28.8184H28.9685H29.1185H29.2689H29.4189H29.569H29.7193H29.8694H30.0194H30.1698H30.3198H30.4699H30.6202H30.7703H30.9203H31.0707H31.2207H31.3708H31.5211H31.6712H31.8212H31.9716H32.1216H32.2717H32.422H32.5721H32.7221H32.8722H33.0225H33.1726H33.3226H33.473H33.623H33.773H33.9234H34.0735H34.2235H34.3739H34.5239H34.6739H34.8243H34.9744H35.1244H35.2748H35.4248H35.5749H35.7249H35.8753H36.0253H36.1753H36.3257H36.4758H36.6258H36.7762H36.9262H37.0762H37.2266H37.812C37.9892 39.9946 38.159 39.9792 38.3368 39.9384C38.6439 39.868 38.9407 39.7029 39.1473 39.5382C39.6065 39.1724 39.9655 38.6239 40 38.0009V33.1642V3.16388V1.98333C39.999 1.97395 39.998 1.96491 39.9973 1.95586C39.9136 1.1983 39.4119 0.526815 38.7374 0.207648C38.4206 0.0579443 38.153 0.0120595 37.8576 2.87728e-06H37.1483H2.30448C1.73648 -0.000666937 1.3192 0.115549 0.920995 0.412946C0.246827 0.916647 0.0495663 1.4947 0 2.17791V3.71078V37.3438V37.8757C0.00636324 38.0619 0.0281244 38.2317 0.0924266 38.4233C0.198592 38.7407 0.314476 38.9936 0.517095 39.2093C0.932715 39.6514 1.3855 39.9863 2.09082 40H2.25359C8.62186 39.9712 14.9978 40 21.3671 40V40Z" fill="#38448E"/>
</svg>
