<svg width="40" height="40" viewBox="0 0 40 40" fill="none" xmlns="http://www.w3.org/2000/svg">
<path d="M13.3343 20.0002C13.3343 16.3182 16.3182 13.3327 20.0002 13.3327C23.6819 13.3327 26.6673 16.3182 26.6673 20.0002C26.6673 23.6818 23.6819 26.6673 20.0002 26.6673C16.3182 26.6673 13.3343 23.6818 13.3343 20.0002ZM9.73016 20.0002C9.73016 25.6721 14.328 30.2698 20.0002 30.2698C25.6721 30.2698 30.2699 25.6721 30.2699 20.0002C30.2699 14.3279 25.6721 9.73015 20.0002 9.73015C14.328 9.73015 9.73016 14.3279 9.73016 20.0002ZM28.2763 9.3231C28.2763 9.32343 28.2763 9.32376 28.2763 9.32409C28.2763 10.6492 29.3511 11.724 30.6762 11.724C32.0017 11.724 33.0765 10.6492 33.0765 9.32409C33.0765 7.99894 32.0024 6.92418 30.6772 6.92385H30.6762C29.3518 6.92451 28.2773 7.99828 28.2763 9.3231V9.3231ZM11.9201 36.2796C9.96996 36.1908 8.91043 35.8659 8.20595 35.5917C7.27228 35.228 6.6059 34.7951 5.9054 34.0956C5.2049 33.3961 4.77136 32.7304 4.40935 31.7967C4.13478 31.0926 3.8102 30.0324 3.72143 28.0826C3.62439 25.9744 3.60517 25.3412 3.60517 20.0002C3.60517 14.6591 3.62605 14.0275 3.72143 11.9178C3.8102 9.96796 4.13743 8.90975 4.40935 8.20362C4.77301 7.26996 5.20589 6.60357 5.9054 5.90307C6.60491 5.20257 7.27063 4.76902 8.20595 4.40735C8.91009 4.13278 9.96996 3.80787 11.9201 3.7191C14.0282 3.62206 14.6615 3.60285 20.0002 3.60285C25.3385 3.60285 25.9725 3.62372 28.0826 3.7191C30.0324 3.80787 31.0906 4.1351 31.7967 4.40735C32.7304 4.76902 33.3964 5.20357 34.0969 5.90307C34.7974 6.60258 35.2297 7.26996 35.593 8.20362C35.8676 8.90777 36.1925 9.96796 36.2809 11.9178C36.3779 14.0275 36.3975 14.6591 36.3975 20.0002C36.3975 25.3412 36.3779 25.9728 36.2809 28.0826C36.1921 30.0324 35.8659 31.0922 35.593 31.7967C35.2297 32.7304 34.7964 33.3968 34.0969 34.0956C33.3974 34.7944 32.7304 35.228 31.7967 35.5917C31.0926 35.8662 30.0324 36.1908 28.0826 36.2796C25.9745 36.3766 25.3412 36.3958 20.0002 36.3958C14.6592 36.3958 14.0276 36.3766 11.9201 36.2796ZM11.7545 0.121218C9.62517 0.21793 8.17051 0.555761 6.9 1.04992C5.58412 1.56064 4.46996 2.24557 3.35711 3.3571C2.24393 4.46829 1.56065 5.58412 1.04993 6.89967C0.555769 8.17117 0.217938 9.62516 0.121226 11.7545C0.0225271 13.8868 0 14.5687 0 20.0002C0 25.4313 0.0225271 26.1132 0.121226 28.2455C0.217938 30.3748 0.555769 31.8288 1.04993 33.1003C1.56065 34.4152 2.24393 35.5324 3.35711 36.6432C4.46996 37.7541 5.58412 38.438 6.9 38.9501C8.17282 39.4442 9.62517 39.7821 11.7545 39.8788C13.8881 39.9758 14.5687 40 20.0002 40C25.4313 40 26.1132 39.9775 28.2455 39.8788C30.3748 39.7821 31.8288 39.4442 33.1003 38.9501C34.4152 38.438 35.5301 37.7544 36.6432 36.6432C37.7561 35.5317 38.438 34.4152 38.9501 33.1003C39.4442 31.8288 39.7837 30.3748 39.8791 28.2455C39.9758 26.1116 39.9983 25.4313 39.9983 20.0002C39.9983 14.5687 39.9758 13.8868 39.8791 11.7545C39.7821 9.62516 39.4442 8.17051 38.9501 6.9C38.438 5.58479 37.7544 4.46995 36.6432 3.3571C35.5317 2.24392 34.4152 1.56064 33.102 1.04992C31.8288 0.555761 30.3749 0.216605 28.2472 0.121218C26.1149 0.0241751 25.4329 0 20.0015 0C14.5704 0 13.8881 0.0225191 11.7545 0.121218V0.121218Z" fill="url(#paint0_radial)"/>
<path d="M13.3343 20.0002C13.3343 16.3182 16.3182 13.3327 20.0002 13.3327C23.6819 13.3327 26.6673 16.3182 26.6673 20.0002C26.6673 23.6818 23.6819 26.6673 20.0002 26.6673C16.3182 26.6673 13.3343 23.6818 13.3343 20.0002ZM9.73016 20.0002C9.73016 25.6721 14.328 30.2698 20.0002 30.2698C25.6721 30.2698 30.2699 25.6721 30.2699 20.0002C30.2699 14.3279 25.6721 9.73015 20.0002 9.73015C14.328 9.73015 9.73016 14.3279 9.73016 20.0002ZM28.2763 9.3231C28.2763 9.32343 28.2763 9.32376 28.2763 9.32409C28.2763 10.6492 29.3511 11.724 30.6762 11.724C32.0017 11.724 33.0765 10.6492 33.0765 9.32409C33.0765 7.99894 32.0024 6.92418 30.6772 6.92385H30.6762C29.3518 6.92451 28.2773 7.99828 28.2763 9.3231V9.3231ZM11.9201 36.2796C9.96996 36.1908 8.91043 35.8659 8.20595 35.5917C7.27228 35.228 6.6059 34.7951 5.9054 34.0956C5.2049 33.3961 4.77136 32.7304 4.40935 31.7967C4.13478 31.0926 3.8102 30.0324 3.72143 28.0826C3.62439 25.9744 3.60517 25.3412 3.60517 20.0002C3.60517 14.6591 3.62605 14.0275 3.72143 11.9178C3.8102 9.96796 4.13743 8.90975 4.40935 8.20362C4.77301 7.26996 5.20589 6.60357 5.9054 5.90307C6.60491 5.20257 7.27063 4.76902 8.20595 4.40735C8.91009 4.13278 9.96996 3.80787 11.9201 3.7191C14.0282 3.62206 14.6615 3.60285 20.0002 3.60285C25.3385 3.60285 25.9725 3.62372 28.0826 3.7191C30.0324 3.80787 31.0906 4.1351 31.7967 4.40735C32.7304 4.76902 33.3964 5.20357 34.0969 5.90307C34.7974 6.60258 35.2297 7.26996 35.593 8.20362C35.8676 8.90777 36.1925 9.96796 36.2809 11.9178C36.3779 14.0275 36.3975 14.6591 36.3975 20.0002C36.3975 25.3412 36.3779 25.9728 36.2809 28.0826C36.1921 30.0324 35.8659 31.0922 35.593 31.7967C35.2297 32.7304 34.7964 33.3968 34.0969 34.0956C33.3974 34.7944 32.7304 35.228 31.7967 35.5917C31.0926 35.8662 30.0324 36.1908 28.0826 36.2796C25.9745 36.3766 25.3412 36.3958 20.0002 36.3958C14.6592 36.3958 14.0276 36.3766 11.9201 36.2796ZM11.7545 0.121218C9.62517 0.21793 8.17051 0.555761 6.9 1.04992C5.58412 1.56064 4.46996 2.24557 3.35711 3.3571C2.24393 4.46829 1.56065 5.58412 1.04993 6.89967C0.555769 8.17117 0.217938 9.62516 0.121226 11.7545C0.0225271 13.8868 0 14.5687 0 20.0002C0 25.4313 0.0225271 26.1132 0.121226 28.2455C0.217938 30.3748 0.555769 31.8288 1.04993 33.1003C1.56065 34.4152 2.24393 35.5324 3.35711 36.6432C4.46996 37.7541 5.58412 38.438 6.9 38.9501C8.17282 39.4442 9.62517 39.7821 11.7545 39.8788C13.8881 39.9758 14.5687 40 20.0002 40C25.4313 40 26.1132 39.9775 28.2455 39.8788C30.3748 39.7821 31.8288 39.4442 33.1003 38.9501C34.4152 38.438 35.5301 37.7544 36.6432 36.6432C37.7561 35.5317 38.438 34.4152 38.9501 33.1003C39.4442 31.8288 39.7837 30.3748 39.8791 28.2455C39.9758 26.1116 39.9983 25.4313 39.9983 20.0002C39.9983 14.5687 39.9758 13.8868 39.8791 11.7545C39.7821 9.62516 39.4442 8.17051 38.9501 6.9C38.438 5.58479 37.7544 4.46995 36.6432 3.3571C35.5317 2.24392 34.4152 1.56064 33.102 1.04992C31.8288 0.555761 30.3749 0.216605 28.2472 0.121218C26.1149 0.0241751 25.4329 0 20.0015 0C14.5704 0 13.8881 0.0225191 11.7545 0.121218V0.121218Z" fill="url(#paint1_radial)"/>
<defs>
<radialGradient id="paint0_radial" cx="0" cy="0" r="1" gradientUnits="userSpaceOnUse" gradientTransform="translate(5.58959 40.0118) scale(2859.42)">
<stop stop-color="#FF9013"/>
<stop offset="0.0901961" stop-color="#FF9013"/>
<stop offset="0.780392" stop-color="#FB2881"/>
<stop offset="1" stop-color="#FB2881"/>
</radialGradient>
<radialGradient id="paint1_radial" cx="0" cy="0" r="1" gradientUnits="userSpaceOnUse" gradientTransform="translate(24.0107 41.6072) scale(2253.89 2253.88)">
<stop stop-color="#A237AF"/>
<stop offset="0.639216" stop-color="#A237AF" stop-opacity="0"/>
<stop offset="1" stop-color="#A237AF"/>
</radialGradient>
</defs>
</svg>
