<svg width="45" height="32" viewBox="0 0 45 32" fill="none" xmlns="http://www.w3.org/2000/svg">
<path fill-rule="evenodd" clip-rule="evenodd" d="M16.8752 23.9117V7.91204C17.215 7.99165 18.2923 8.67651 18.6372 8.87486L23.8354 11.8512C24.4223 12.2043 24.9856 12.5023 25.5714 12.8401C26.1835 13.192 30.5045 15.7438 30.8494 15.8245C30.6123 16.1486 26.4244 18.4441 25.7151 18.8639C25.0901 19.2327 24.53 19.5168 23.9222 19.8835L16.8752 23.9117ZM0 14.5057L0.175265 21.6261C0.222163 22.56 0.415643 24.8099 0.650669 25.6342C1.2925 27.8831 2.51345 29.8119 4.30924 30.8546C5.42327 31.5004 6.33738 31.5113 8.00051 31.5572L12.2291 31.8116C13.1151 31.9102 15.5497 31.915 16.5233 31.9113C17.3257 31.9081 17.8011 32.0008 18.6332 32L33.6997 31.7727C36.1015 31.4098 38.9955 32.0616 41.0713 30.5324C41.9883 29.8578 42.5206 29.2517 43.1372 28.2908C44.43 26.2772 44.411 25.386 44.6731 23.4083C44.8596 21.9997 44.8424 20.6244 44.9113 19.3405L45 14.3293V14.2586V14.1878C44.9901 12.7366 44.8355 11.4685 44.8266 10.1079C44.8237 9.62941 44.7449 9.59054 44.7339 9.14505C44.7149 8.3704 44.5704 6.69082 44.4161 6.12256L43.871 4.46979C43.6676 3.95943 43.4103 3.4732 43.1155 3.02744C42.5484 2.17318 41.7201 1.4457 40.7535 0.995114C39.9093 0.602426 38.9577 0.556324 37.9661 0.530591C37.5146 0.518529 37.428 0.435704 36.9167 0.437848C36.2162 0.439725 35.5502 0.39201 34.8039 0.352072C34.4062 0.331164 34.3236 0.261472 33.8412 0.261472C31.9198 0.258523 30.5386 0.0869747 28.4764 0.0880469C27.6443 0.0888511 27.141 -0.00389363 26.3676 0.000127059L11.3252 0.251286C10.9913 0.288276 10.6187 0.256381 10.2797 0.260402L5.4364 0.690077C4.5105 0.956247 3.38844 1.61993 2.7994 2.36054C1.71807 3.71927 1.0891 4.62741 0.582874 6.56136C0.26906 7.75845 0.00803964 13.3405 0 14.4561V14.5057V14.5057Z" fill="#E31E24"/>
</svg>
