<svg width="40" height="40" viewBox="0 0 40 40" fill="none" xmlns="http://www.w3.org/2000/svg">
<path fill-rule="evenodd" clip-rule="evenodd" d="M16.667 33.334C12.418 33.334 8.66707 29.64 8.66707 25.8676C8.66707 24.0035 8.60644 23.3507 9.4638 21.5972C10.634 19.2033 13.3678 17.2005 16.1335 17.2005H17.2005V21.067C15.6516 21.067 14.9204 21.1454 13.83 22.2305C9.82115 26.2269 15.6639 32.1334 19.7723 28.1724C20.5566 27.4148 21.067 26.4242 21.067 24.9339V6.666H24.8002C25.0015 9.09374 26.7373 11.3276 28.7505 12.3149C29.654 12.7576 30.3068 12.827 31.3329 13.0671V17.4674C29.0937 17.4674 26.6837 16.667 25.4087 14.9915C25.1847 14.6981 25.0122 14.5095 24.8002 14.2657C24.8002 17.7893 25.1385 24.9087 24.4305 27.4966C23.5855 30.5861 20.5549 33.334 16.667 33.334V33.334ZM0 4.40001V35.7333C0 36.7969 0.846634 38.1449 1.42803 38.7052C2.07742 39.3312 3.30988 40 4.53363 40H35.4663C37.8321 40 40 37.8318 40 35.4664V4.53364C40 2.23752 37.873 0 35.6 0H4.40001C2.19464 0 0 2.19465 0 4.40001V4.40001Z" fill="#2B2A29"/>
</svg>
