<svg width="40" height="40" viewBox="0 0 40 40" fill="none" xmlns="http://www.w3.org/2000/svg">
<path fill-rule="evenodd" clip-rule="evenodd" d="M4.8293 6.94159C-6.57763 20.2386 3.38687 41.8297 22.5358 39.876C32.7351 38.8352 41.086 29.3327 39.8847 17.506C38.1318 0.25219 16.0159 -6.09841 4.8293 6.94159V6.94159ZM14.198 29.5588L13.5587 27.7072C13.3182 26.9776 13.0419 26.2634 12.8024 25.5345C12.7572 25.3983 12.4863 24.6872 12.4863 24.595L13.8252 23.3642C13.8731 23.324 13.8865 23.3233 13.9348 23.2743L14.1434 23.0848C14.1802 23.0472 14.205 23.0204 14.2425 22.9845L14.4519 22.7956C14.7292 22.5407 15.0242 22.3052 15.2878 22.0382C15.3367 21.9882 15.344 21.9875 15.3956 21.947C15.5999 21.7866 15.7989 21.5401 16.0092 21.3854L17.75 19.7995C17.753 19.7968 17.7574 19.7934 17.7611 19.7907C17.7637 19.788 17.7684 19.784 17.7714 19.7813C17.7745 19.7787 17.7792 19.7746 17.7822 19.772C17.824 19.7374 17.8451 19.7166 17.8847 19.676C18.0823 19.4751 18.3153 19.3087 18.5123 19.1078L19.1389 18.5399C19.1734 18.505 19.1938 18.4828 19.2296 18.4513C19.233 18.4486 19.2377 18.4449 19.2407 18.4423L19.3378 18.3601C19.377 18.3242 19.3991 18.296 19.4369 18.2604C19.4828 18.2165 19.5016 18.2148 19.5475 18.1712L19.9644 17.7918C20.0023 17.7603 20.0284 17.7274 20.0639 17.6922L20.7937 17.0274C20.9524 16.9093 21.0612 16.7701 21.2089 16.646L22.2535 15.6983C22.3011 15.6517 22.3171 15.6507 22.3637 15.6091C22.4009 15.5756 22.426 15.5457 22.4622 15.5095L24.334 13.8155C24.3721 13.7806 24.3953 13.7504 24.4328 13.7149L24.7503 13.4348C24.7901 13.4005 24.8132 13.3744 24.8507 13.3365L25.0597 13.1473C25.1073 13.1 25.1237 13.099 25.1699 13.0581C25.2774 12.9608 25.7238 12.515 25.8015 12.4942L25.5145 12.8645C25.1685 13.3321 24.7941 13.7799 24.4448 14.2452L23.274 15.7637C23.2402 15.8094 23.214 15.8369 23.1775 15.8865L21.1185 18.5489C21.0837 18.5959 21.0566 18.6321 21.0251 18.6744L18.9748 21.3254C18.9091 21.4136 18.8415 21.4968 18.7758 21.585C18.7424 21.63 18.7162 21.6578 18.6794 21.7071C18.6446 21.7544 18.6204 21.7839 18.5823 21.8296L18.0953 22.4585C18.0595 22.5038 18.032 22.5498 17.9942 22.5957L16.1937 24.9193C16.1656 24.9539 16.1709 24.9539 16.1428 24.9881L15.9409 25.244C15.9054 25.2927 15.8826 25.3235 15.8454 25.3678C15.8099 25.4087 15.7808 25.4513 15.7506 25.4919C15.7165 25.5382 15.6766 25.5818 15.6535 25.6345C15.4927 26.0078 15.3859 26.3953 15.2359 26.7706L14.688 28.255C14.6474 28.374 14.6156 28.4629 14.5701 28.576L14.198 29.5588V29.5588ZM29.8217 7.25121C29.7424 7.26999 29.6878 7.3136 29.6235 7.35184C29.5525 7.39444 29.4959 7.42027 29.4168 7.46421C29.3693 7.49071 29.379 7.49105 29.3308 7.51755L27.5196 8.5336C27.4677 8.56111 27.4694 8.56682 27.4201 8.59399L27.1264 8.75835C26.765 8.97807 26.3853 9.17094 26.0199 9.38428L25.8146 9.49767C25.7389 9.53792 25.6944 9.56677 25.622 9.60366L24.5141 10.2283C24.4622 10.2554 24.4642 10.2611 24.415 10.2883L23.2144 10.9599C23.1511 10.9971 23.0784 11.0417 23.0144 11.0786L21.3164 12.0289C21.2675 12.0564 21.2692 12.0618 21.2173 12.089C21.1376 12.1316 21.0931 12.1587 21.011 12.202L18.7099 13.5045C18.6657 13.5277 18.6472 13.5334 18.605 13.5589C18.5384 13.5995 18.4774 13.635 18.4172 13.6702L18.2119 13.7836C18.1322 13.8259 18.0879 13.8534 18.0059 13.8963L17.3069 14.2925C17.2684 14.3163 17.2396 14.3277 17.2038 14.3485C17.167 14.3703 17.1479 14.3861 17.1043 14.4085C17.0685 14.4263 17.0373 14.4391 16.9978 14.4612L15.8169 15.1324C15.765 15.1599 15.7664 15.1653 15.7175 15.1921C15.6779 15.2146 15.6461 15.227 15.611 15.2451L13.9063 16.2092C13.3969 16.4917 12.7957 16.8523 12.3008 17.1126L10.5026 18.1226C10.4507 18.1501 10.4524 18.1551 10.4032 18.1826C10.3261 18.2249 10.2709 18.2581 10.1972 18.2953C10.1533 18.3171 10.1349 18.3332 10.0977 18.3547L5.7791 20.7873C5.71144 20.8226 5.66256 20.8534 5.58687 20.8933L4.97599 21.2388C4.93346 21.26 4.92376 21.267 4.88759 21.2895L4.47899 21.5183C4.42943 21.5451 4.43177 21.5508 4.37986 21.5783C4.30484 21.6176 4.23116 21.6437 4.18662 21.7041C4.25159 21.7353 4.34001 21.7618 4.41737 21.7923C4.80587 21.9483 5.20139 22.0727 5.59156 22.2311L7.01022 22.7638C7.08256 22.7926 7.15389 22.8245 7.23929 22.853C7.56583 22.9627 7.86391 23.0969 8.19546 23.2119C8.25005 23.231 8.26948 23.2421 8.31134 23.2549C8.67404 23.3692 9.01162 23.5272 9.36931 23.6503L9.84689 23.8295C9.93464 23.86 9.99257 23.8905 10.0753 23.92L10.5398 24.0925C10.6081 24.1233 10.5877 24.1052 10.6138 24.1783L11.0964 25.509C11.3131 26.0525 11.4886 26.6287 11.7023 27.1745C11.7649 27.3355 11.8078 27.4925 11.8694 27.6448C12.0305 28.041 12.146 28.4448 12.3074 28.841L12.6497 29.7936C12.6728 29.8664 12.7154 29.9671 12.7425 30.0399L13.6126 32.4373C13.6802 32.609 13.7392 32.7523 13.78 32.9277C13.8507 32.9086 13.9599 32.7378 14.0027 32.6724C14.1156 32.5007 14.2536 32.3531 14.3688 32.1817L14.6518 31.8073C14.7 31.7349 14.7466 31.6775 14.7951 31.6117L16.7999 28.9352C16.827 28.8994 16.8417 28.8732 16.8645 28.8406C17.0919 28.5166 17.3535 28.2087 17.5812 27.8836C17.7557 27.6351 18.2554 27.039 18.3776 26.8075C18.5474 26.8474 19.8974 27.3395 20.1714 27.4429L24.1538 28.8564C24.5506 28.9812 24.9267 29.1355 25.3162 29.267C25.7057 29.3982 26.0795 29.5531 26.4784 29.6779C26.5437 29.6987 26.5457 29.7121 26.6177 29.7182C26.6512 29.6477 26.6612 29.4746 26.677 29.379C26.6964 29.2636 26.7051 29.1536 26.7252 29.0288L26.9754 27.2862C26.9861 27.1078 27.038 26.9293 27.0544 26.7472L27.3488 24.6496C27.3645 24.5718 27.3689 24.5604 27.3739 24.4752C27.3783 24.4021 27.3887 24.3762 27.4024 24.3045C27.4513 24.0525 27.4603 23.8402 27.5015 23.5866C27.5109 23.5279 27.5129 23.4675 27.5239 23.4098C27.5471 23.2911 27.5541 23.1814 27.5779 23.065L27.6301 22.7185C27.7048 22.0674 27.817 21.4304 27.9068 20.783L28.0297 19.9095C28.0742 19.4348 28.1693 18.9706 28.2286 18.4942C28.2879 18.0246 28.3696 17.5651 28.4279 17.0985L28.8485 14.111C28.8532 14.0677 28.8766 13.9825 28.882 13.9453C28.9316 13.5917 28.9939 13.2315 29.0263 12.8739C29.032 12.8125 29.0471 12.7696 29.0582 12.7062C29.0695 12.6401 29.0638 12.5915 29.0766 12.525C29.1549 12.1235 29.1911 11.716 29.249 11.3024L29.4781 9.71839C29.5615 9.31653 29.5813 8.89655 29.6499 8.49536C29.661 8.43163 29.6761 8.38835 29.6818 8.32697L29.727 7.97375C29.7407 7.87647 29.7682 7.72988 29.7796 7.62791C29.7966 7.48266 29.8217 7.40484 29.8217 7.25121V7.25121Z" fill="#0094D2"/>
</svg>
