<svg width="40" height="40" viewBox="0 0 40 40" fill="none" xmlns="http://www.w3.org/2000/svg">
<path fill-rule="evenodd" clip-rule="evenodd" d="M16.2283 13.3715C16.2283 12.97 16.3937 12.7998 16.9142 12.7998C22.554 12.7998 22.3005 12.3179 22.2864 14.399C22.2777 15.6974 21.9863 20.4575 22.7425 20.4575C24.2456 20.4575 26.5444 16.0467 27.2383 14.6666C28.3492 12.4565 27.4694 12.7998 32.1143 12.7998C32.4227 12.7998 32.4291 12.8544 32.6856 12.9144C32.7593 13.2208 32.7998 13.1297 32.7998 13.3715C32.7998 14.4151 31.3731 16.6292 30.8795 17.3938C30.579 17.8596 28.5716 20.6708 28.5716 21.1427C28.5716 21.9957 30.6092 23.5755 31.1517 24.2768C32.0302 25.4128 35.2132 28.5716 31.8858 28.5716C28.0545 28.5716 28.931 28.6594 27.1734 26.8833C26.0437 25.7416 24.3863 23.7714 22.8574 23.7714C21.7449 23.7714 22.5383 26.8679 22.2445 27.8445C21.9548 28.8081 19.4645 28.5344 18.521 28.3365C16.0819 27.8241 14.1317 26.3652 12.6548 24.831C12.4026 24.5691 12.3675 24.464 12.1397 24.2031C11.2361 23.1675 9.49898 20.4702 8.87437 19.2398C8.33953 18.1858 7.82409 17.1556 7.41383 16.0146C6.01559 12.1223 6.73164 12.7998 10.8574 12.7998C11.4676 12.7998 11.6571 13.1669 11.8416 13.6441C12.0332 14.1405 12.1531 14.5588 12.3263 14.9878C12.9221 16.4681 15.3461 21.7144 16.8 21.7144C17.2481 21.7144 17.3716 21.1491 17.3716 20.6859C17.3716 19.1031 17.585 15.9466 16.9935 14.7778C16.744 14.2845 16.2283 13.901 16.2283 13.3715V13.3715ZM0 12.3427V27.6573C0 33.3899 1.22742 37.9591 6.39873 39.3155C7.91854 39.7143 9.85899 40 11.7717 40H28.2283C30.145 40 31.8356 39.7572 33.4184 39.3613C38.7625 38.025 40 33.3585 40 28.2283V11.7717C40 9.88379 39.716 7.96142 39.3389 6.48849C37.9976 1.24887 33.4579 0 27.6573 0H12.3427C9.32784 0 4.94256 0.476574 2.7094 2.7094C2.47798 2.94116 2.24789 3.26267 2.03958 3.52557C0.463843 5.51023 0 9.81446 0 12.3427V12.3427Z" fill="#0088F9"/>
</svg>
