<svg width="40" height="40" viewBox="0 0 40 40" fill="none" xmlns="http://www.w3.org/2000/svg">
<path fill-rule="evenodd" clip-rule="evenodd" d="M27.7005 8.10254L29.0634 8.16551L29.043 12.7386L33.6381 12.8438L33.6431 14.087L29.048 14.0913L29.0393 18.6537L27.7038 18.7137L27.6731 14.0947L23.1164 14.0887L23.1455 12.7504L27.6988 12.7179L27.7005 8.10254V8.10254ZM13.3674 23.0641C6.95548 24.0946 8.46668 31.1745 14.9655 30.1825C21.3263 29.2113 19.7817 22.0329 13.3674 23.0641ZM12.6816 9.42609C8.98945 10.6609 11.2011 18.6631 15.1164 17.6165C18.9178 16.6008 16.6868 8.08613 12.6816 9.42609ZM13.7435 19.0191C6.40196 19.0556 7.45286 12.4744 8.89225 10.7017C11.2198 7.8373 14.4701 8.11259 17.729 8.11092C19.2649 8.11092 20.5289 7.84333 21.1907 8.54797L18.2942 9.24056C19.0678 9.99711 19.63 10.0229 19.941 11.402C20.1561 12.3485 20.1919 13.9845 19.937 14.9199C19.0491 18.1768 14.4744 18.1963 18.1222 20.9686C20.1732 22.5273 21.664 24.3297 21.0804 27.2293C19.7713 33.7362 5.62599 33.5925 6.53157 26.3666C6.95648 22.9814 10.981 22.0939 14.5997 22.0262C14.284 20.2111 13.7495 21.7774 13.7435 19.0191V19.0191ZM9.38629 0.127108C-1.70022 1.16967 0.10796 9.91171 0.111301 20.9077C0.114641 30.3905 -1.70622 39.8228 10.9085 39.933C14.4086 39.9638 28.2436 40.0964 30.7827 39.8723C41.6952 38.9085 39.8887 29.4464 39.8877 19.0864C39.886 9.67158 41.7215 0.187058 29.0898 0.0621381C25.8098 0.0296523 11.6965 -0.089911 9.38629 0.127108V0.127108Z" fill="#E31E24"/>
</svg>
