<svg width="45" height="44" viewBox="0 0 45 44" fill="none" xmlns="http://www.w3.org/2000/svg">
<path d="M13.3225 35.9236C13.3884 35.9236 13.455 35.9407 13.5139 35.9763C15.1544 36.9521 16.9131 37.6474 18.7408 38.044C18.9103 38.0805 19.0303 38.2274 19.0303 38.3963V42.0648C19.0303 42.7336 19.5869 43.2774 20.2702 43.2774H24.7302C25.4129 43.2774 25.9689 42.7336 25.9689 42.0648V38.3963C25.9689 38.2274 26.0895 38.0805 26.259 38.044C28.1096 37.6426 29.8677 36.947 31.4839 35.9775C31.6289 35.8909 31.8166 35.9113 31.9383 36.0296L34.5604 38.5854C35.0245 39.0446 35.8449 39.0423 36.3048 38.587L39.4627 35.5082C39.9447 35.0352 39.9447 34.2651 39.4621 33.7921L36.9348 31.3221C36.8104 31.1999 36.7903 31.0087 36.8886 30.8651C37.9707 29.2819 38.7593 27.5324 39.2313 25.6678C39.2723 25.5067 39.4199 25.3931 39.5901 25.3931H43.0209C43.7046 25.3931 44.2613 24.8491 44.2613 24.1802V19.8196C44.2613 19.1519 43.7046 18.6086 43.0209 18.6086H39.7869C39.6098 18.6086 39.4581 18.4864 39.4239 18.3164C39.0323 16.3707 38.2903 14.5117 37.2179 12.7921C37.1294 12.6499 37.1521 12.4664 37.273 12.3485L39.4627 10.2151C39.6975 9.98549 39.8259 9.67846 39.8249 9.35101C39.8243 9.02706 39.6957 8.72567 39.4643 8.50212L36.3066 5.41456C35.8431 4.95597 35.0227 4.95694 34.5628 5.41222L32.4649 7.46489C32.3397 7.58533 32.1447 7.60498 31.9986 7.50984C30.2452 6.36851 28.3138 5.56476 26.259 5.12038C26.0895 5.0838 25.9689 4.9371 25.9689 4.76744V1.93437C25.9689 1.26623 25.4129 0.723006 24.7302 0.723006H20.2702C19.5869 0.723006 19.0303 1.26623 19.0303 1.93437V4.76744C19.0303 4.9371 18.9097 5.08321 18.7404 5.12038C16.686 5.56476 14.7552 6.36851 13.0018 7.50984C12.8551 7.60498 12.6601 7.58533 12.5355 7.46489L10.4392 5.41456C9.97134 4.95694 9.1537 4.95694 8.68588 5.41398L5.53826 8.49978C5.30385 8.72567 5.1755 9.02745 5.17431 9.35101C5.17331 9.67846 5.30226 9.98549 5.53767 10.2151L7.71978 12.3485C7.84036 12.467 7.86246 12.6499 7.77391 12.7921C6.71011 14.499 5.97047 16.3573 5.57528 18.3168C5.54105 18.4864 5.38942 18.6086 5.21232 18.6086H1.97835C1.29502 18.6086 0.739048 19.1519 0.739048 19.8196V24.1802C0.739048 24.8491 1.29502 25.3931 1.97835 25.3931H5.40136C5.5707 25.3931 5.71855 25.5062 5.75935 25.6663C6.2399 27.5287 7.02849 29.2815 8.10363 30.8742C8.20034 31.0176 8.18104 31.2077 8.05627 31.3289L5.53767 33.7927C5.05452 34.2659 5.05452 35.0352 5.53767 35.5088L8.68527 38.5854C9.15369 39.0434 9.97075 39.0434 10.4392 38.5854L13.0614 36.0296C13.1325 35.9602 13.227 35.9236 13.3225 35.9236V35.9236ZM24.7302 44H20.2702C19.1792 44 18.2911 43.1322 18.2911 42.0648V38.6843C16.5798 38.2829 14.9303 37.6295 13.3792 36.7396L10.9617 39.0968C10.2147 39.8277 8.90994 39.8283 8.16273 39.0962L5.01512 36.0197C4.24364 35.2642 4.24364 34.0363 5.01472 33.2818L7.3224 31.0248C6.33661 29.5088 5.59517 27.8604 5.11581 26.1161H1.97835C0.88749 26.1161 0 25.2476 0 24.1802V19.8196C0 18.7534 0.88749 17.8856 1.97835 17.8856H4.91165C5.3158 16.0421 6.01544 14.2871 6.99308 12.6604L5.01512 10.7264C4.63923 10.3594 4.43348 9.87011 4.43527 9.34867C4.43686 8.83132 4.64341 8.34802 5.01692 7.9873L8.16214 4.90363C8.91034 4.17207 10.2147 4.17265 10.9617 4.90305L12.8459 6.74597C14.5244 5.69318 16.3533 4.93204 18.2911 4.48006V1.93437C18.2911 0.86776 19.1792 0 20.2702 0H24.7302C25.8206 0 26.7081 0.86776 26.7081 1.93437V4.48006C28.6463 4.93146 30.476 5.69318 32.1545 6.74597L34.0387 4.90305C34.7743 4.17362 36.0905 4.17207 36.8309 4.9048L39.9853 7.98905C40.3564 8.34802 40.5627 8.83132 40.5645 9.34867C40.5661 9.87011 40.3604 10.3594 39.9853 10.7264L37.9992 12.6604C38.9846 14.2982 39.686 16.0532 40.0879 17.8856H43.0209C44.1123 17.8856 45 18.7534 45 19.8196V24.1802C45 25.2476 44.1123 26.1161 43.0209 26.1161H39.877C39.404 27.8631 38.6626 29.5099 37.67 31.0186L39.9853 33.2812C40.7556 34.0363 40.7556 35.2642 39.9857 36.0191L36.8291 39.0968C36.0928 39.8266 34.7759 39.8283 34.0363 39.0946L31.6204 36.7402C30.0887 37.627 28.4389 38.279 26.7081 38.6843V42.0648C26.7081 43.1322 25.8206 44 24.7302 44V44Z" fill="#252422"/>
<path d="M22.5001 12.3212C17.0418 12.3212 12.6014 16.663 12.6014 21.9999C12.6014 27.3372 17.0418 31.6786 22.5001 31.6786C27.9583 31.6786 32.3988 27.3372 32.3988 21.9999C32.3988 16.663 27.9583 12.3212 22.5001 12.3212V12.3212ZM22.5001 32.4017C16.6343 32.4017 11.8623 27.7361 11.8623 21.9999C11.8623 16.2645 16.6343 11.598 22.5001 11.598C28.3661 11.598 33.138 16.2645 33.138 21.9999C33.138 27.7361 28.3661 32.4017 22.5001 32.4017Z" fill="#252422"/>
</svg>
