<svg width="45" height="44" viewBox="0 0 45 44" fill="none" xmlns="http://www.w3.org/2000/svg">
<path d="M10.422 43.1917H34.5722C40.6285 38.8783 44.2411 31.6941 44.2411 23.9494C44.2411 11.1893 34.4869 0.808066 22.497 0.808066C10.5107 0.808066 0.758884 11.1893 0.758884 23.9494C0.758884 31.6959 4.3691 38.8809 10.422 43.1917V43.1917ZM34.6865 44H10.3074C10.2328 44 10.1598 43.9765 10.0979 43.9329C3.77497 39.479 0 32.0086 0 23.9494C0 10.7441 10.0921 0 22.497 0C34.9054 0 45 10.7441 45 23.9494C45 32.0066 41.2226 39.4766 34.8961 43.9329C34.8344 43.9765 34.7613 44 34.6865 44Z" fill="#252422"/>
<path d="M9.26393 39.2541H35.7362V29.2824L26.8295 25.558L22.5969 29.5905C22.4492 29.7309 22.2233 29.7265 22.081 29.5806L18.157 25.5612L9.26393 29.2824V39.2541V39.2541ZM36.1156 40.0618H8.88449C8.6756 40.0618 8.50562 39.8811 8.50562 39.6579V29.0066C8.50562 28.8408 8.6008 28.6923 8.74611 28.6314L18.1063 24.7149C18.2441 24.6552 18.401 24.6902 18.508 24.7993L22.3534 28.7387L26.4974 24.7895C26.6036 24.6874 26.7555 24.6601 26.8892 24.7143L36.2546 28.6306C36.3993 28.6923 36.4951 28.8408 36.4951 29.0066V39.6579C36.4951 39.8811 36.3253 40.0618 36.1156 40.0618V40.0618Z" fill="#252422"/>
<path d="M31.522 40.0459H13.4778C13.268 40.0459 13.0984 39.8649 13.0984 39.642V32.9566C13.0984 32.7329 13.268 32.5521 13.4778 32.5521C13.6873 32.5521 13.8571 32.7329 13.8571 32.9566V39.2374H31.1425V32.9566C31.1425 32.7329 31.3125 32.5521 31.522 32.5521C31.7316 32.5521 31.9014 32.7329 31.9014 32.9566V39.642C31.9014 39.8649 31.7316 40.0459 31.522 40.0459Z" fill="#252422"/>
<path d="M27 30.6088H17.9953C17.7858 30.6088 17.6158 30.4275 17.6158 30.2044V25.0908C17.6158 24.8671 17.7858 24.6862 17.9953 24.6862C18.2049 24.6862 18.3747 24.8671 18.3747 25.0908V29.8005H26.6205V25.0908C26.6205 24.8671 26.7903 24.6862 27 24.6862C27.2094 24.6862 27.3794 24.8671 27.3794 25.0908V30.2044C27.3794 30.4275 27.2094 30.6088 27 30.6088Z" fill="#252422"/>
<path d="M21.5228 33.1403H23.472V30.6088H21.5228V33.1403ZM23.8514 33.9481H21.1434C20.9339 33.9481 20.7639 33.7672 20.7639 33.5441V30.2044C20.7639 29.9814 20.9339 29.8005 21.1434 29.8005H23.8514C24.0605 29.8005 24.2301 29.9814 24.2301 30.2044V33.5441C24.2301 33.7672 24.0605 33.9481 23.8514 33.9481Z" fill="#252422"/>
<path d="M20.2451 39.2541H24.4964L23.5374 33.9481H21.4423L20.2451 39.2541ZM24.9553 40.0618H19.7635C19.6474 40.0618 19.5374 40.0052 19.4658 39.9079C19.3934 39.8108 19.3671 39.6842 19.3946 39.5644L20.7745 33.4506C20.8155 33.2684 20.9682 33.1403 21.1433 33.1403H23.8514C24.033 33.1403 24.1893 33.2778 24.2237 33.4679L25.3276 39.5815C25.3491 39.6997 25.3201 39.8227 25.2476 39.9153C25.1758 40.0078 25.0684 40.0618 24.9553 40.0618Z" fill="#252422"/>
<path d="M22.6197 8.64531C19.1078 8.64531 16.2511 11.6833 16.2511 15.4163C16.2511 19.1577 19.1078 22.2007 22.6197 22.2007C26.1313 22.2007 28.9881 19.1577 28.9881 15.4163C28.9881 11.6833 26.1313 8.64531 22.6197 8.64531ZM22.6197 23.0088C18.6895 23.0088 15.4922 19.6032 15.4922 15.4163C15.4922 11.2379 18.6895 7.83724 22.6197 7.83724C26.55 7.83724 29.747 11.2379 29.747 15.4163C29.747 19.6032 26.55 23.0088 22.6197 23.0088V23.0088Z" fill="#252422"/>
<path d="M27.7381 14.1772C25.9873 14.1772 24.2909 13.6111 23.0844 12.6239C22.9181 12.4884 22.8871 12.2344 23.0144 12.0573C23.1429 11.881 23.3804 11.8473 23.5466 11.9835C24.9371 13.1203 27.0912 13.6173 29.0963 13.2451C29.3007 13.2115 29.4986 13.3546 29.5347 13.5745C29.5702 13.7943 29.4326 14.0032 29.2259 14.0416C28.7373 14.131 28.237 14.1772 27.7381 14.1772V14.1772Z" fill="#252422"/>
<path d="M19.0624 14.041C18.0251 14.041 17.0281 13.8516 16.0987 13.4782C15.9027 13.3994 15.804 13.1663 15.8782 12.9577C15.9515 12.7483 16.1705 12.6438 16.3667 12.7221C17.2097 13.0606 18.1167 13.2328 19.0624 13.2328C22.1784 13.2328 24.7142 11.3565 24.7142 9.04994C24.7142 8.82683 24.8838 8.64611 25.0935 8.64611C25.3025 8.64611 25.4724 8.82683 25.4724 9.04994C25.4724 11.8019 22.5969 14.041 19.0624 14.041Z" fill="#252422"/>
</svg>
