<svg width="46" height="45" viewBox="0 0 46 45" fill="none" xmlns="http://www.w3.org/2000/svg">
<path d="M1.57743 43.5852H33.7733V4.41794H1.57743V43.5852ZM34.1623 44.3078H1.18822C0.972799 44.3078 0.798584 44.146 0.798584 43.9466V4.05675C0.798584 3.85653 0.972799 3.69476 1.18822 3.69476H34.1623C34.3777 3.69476 34.5521 3.85653 34.5521 4.05675V43.9466C34.5521 44.146 34.3777 44.3078 34.1623 44.3078Z" fill="#252422"/>
<path d="M5.46797 22.3451H29.8807V20.4303H5.46797V22.3451ZM30.2697 23.0682H5.07897C4.86334 23.0682 4.68933 22.9063 4.68933 22.7062V20.0692C4.68933 19.8695 4.86334 19.7078 5.07897 19.7078H30.2697C30.4851 19.7078 30.6593 19.8695 30.6593 20.0692V22.7062C30.6593 22.9063 30.4851 23.0682 30.2697 23.0682Z" fill="#252422"/>
<path d="M30.2697 26.5723H5.07897C4.86334 26.5723 4.68933 26.4108 4.68933 26.2112C4.68933 26.0115 4.86334 25.8494 5.07897 25.8494H30.2697C30.4851 25.8494 30.6593 26.0115 30.6593 26.2112C30.6593 26.4108 30.4851 26.5723 30.2697 26.5723Z" fill="#252422"/>
<path d="M23.1315 28.8933H5.07897C4.86334 28.8933 4.68933 28.7317 4.68933 28.5321C4.68933 28.3321 4.86334 28.1703 5.07897 28.1703H23.1315C23.3465 28.1703 23.5207 28.3321 23.5207 28.5321C23.5207 28.7317 23.3465 28.8933 23.1315 28.8933Z" fill="#252422"/>
<path d="M30.2697 31.2088H5.07897C4.86334 31.2088 4.68933 31.0471 4.68933 30.8476C4.68933 30.6474 4.86334 30.4857 5.07897 30.4857H30.2697C30.4851 30.4857 30.6593 30.6474 30.6593 30.8476C30.6593 31.0471 30.4851 31.2088 30.2697 31.2088Z" fill="#252422"/>
<path d="M30.2697 33.5294H5.07897C4.86334 33.5294 4.68933 33.3676 4.68933 33.1674C4.68933 32.9678 4.86334 32.8062 5.07897 32.8062H30.2697C30.4851 32.8062 30.6593 32.9678 30.6593 33.1674C30.6593 33.3676 30.4851 33.5294 30.2697 33.5294Z" fill="#252422"/>
<path d="M25.5696 35.8503H5.07897C4.86334 35.8503 4.68933 35.6885 4.68933 35.4885C4.68933 35.2891 4.86334 35.1271 5.07897 35.1271H25.5696C25.7845 35.1271 25.9588 35.2891 25.9588 35.4885C25.9588 35.6885 25.7845 35.8503 25.5696 35.8503Z" fill="#252422"/>
<path d="M30.2697 38.1652H5.07897C4.86334 38.1652 4.68933 38.0035 4.68933 37.8032C4.68933 37.6038 4.86334 37.4421 5.07897 37.4421H30.2697C30.4851 37.4421 30.6593 37.6038 30.6593 37.8032C30.6593 38.0035 30.4851 38.1652 30.2697 38.1652Z" fill="#252422"/>
<path d="M5.46797 16.4224H13.5135V8.95083H5.46797V16.4224ZM13.9033 17.145H5.07897C4.86334 17.145 4.68933 16.9834 4.68933 16.7838V8.58965C4.68933 8.38963 4.86334 8.22786 5.07897 8.22786H13.9033C14.1181 8.22786 14.2923 8.38963 14.2923 8.58965V16.7838C14.2923 16.9834 14.1181 17.145 13.9033 17.145Z" fill="#252422"/>
<path d="M6.3523 5.9896C6.13732 5.9896 5.96331 5.82804 5.96331 5.62842C5.96331 5.4284 6.13732 5.26663 6.3523 5.26663C6.90715 5.26663 7.35858 4.84687 7.35858 4.33109V1.96235C7.35858 1.44876 6.90715 1.03079 6.3523 1.03079C5.80024 1.03079 5.35139 1.44876 5.35139 1.96235C5.35139 2.16197 5.17738 2.32374 4.96175 2.32374C4.74676 2.32374 4.57275 2.16197 4.57275 1.96235C4.57275 1.05031 5.37113 0.307816 6.3523 0.307816C7.33627 0.307816 8.13722 1.05031 8.13722 1.96235V4.33109C8.13722 5.24531 7.33627 5.9896 6.3523 5.9896V5.9896ZM10.8836 5.9896C10.6679 5.9896 10.4937 5.82804 10.4937 5.62842C10.4937 5.4284 10.6679 5.26663 10.8836 5.26663C11.4378 5.26663 11.8879 4.84687 11.8879 4.33109V1.96235C11.8879 1.44876 11.4378 1.03079 10.8836 1.03079C10.3292 1.03079 9.87901 1.44876 9.87901 1.96235C9.87901 2.16197 9.70501 2.32374 9.49002 2.32374C9.27439 2.32374 9.10037 2.16197 9.10037 1.96235C9.10037 1.05031 9.90003 0.307816 10.8836 0.307816C11.8665 0.307816 12.6661 1.05031 12.6661 1.96235V4.33109C12.6661 5.24531 11.8665 5.9896 10.8836 5.9896V5.9896ZM15.4108 5.9896C15.1958 5.9896 15.0215 5.82804 15.0215 5.62842C15.0215 5.4284 15.1958 5.26663 15.4108 5.26663C15.9637 5.26663 16.4138 4.84687 16.4138 4.33109V1.96235C16.4138 1.44876 15.9637 1.03079 15.4108 1.03079C14.8557 1.03079 14.4049 1.44876 14.4049 1.96235C14.4049 2.16197 14.2307 2.32374 14.0153 2.32374C13.8005 2.32374 13.6263 2.16197 13.6263 1.96235C13.6263 1.05031 14.4272 0.307816 15.4108 0.307816C16.393 0.307816 17.1927 1.05031 17.1927 1.96235V4.33109C17.1927 5.24531 16.393 5.9896 15.4108 5.9896V5.9896ZM19.9401 5.9896C19.7245 5.9896 19.5505 5.82804 19.5505 5.62842C19.5505 5.4284 19.7245 5.26663 19.9401 5.26663C20.4926 5.26663 20.9414 4.84687 20.9414 4.33109V1.96235C20.9414 1.44876 20.4926 1.03079 19.9401 1.03079C19.3853 1.03079 18.9338 1.44876 18.9338 1.96235C18.9338 2.16197 18.7598 2.32374 18.5448 2.32374C18.3292 2.32374 18.1552 2.16197 18.1552 1.96235C18.1552 1.05031 18.9561 0.307816 19.9401 0.307816C20.9211 0.307816 21.7197 1.05031 21.7197 1.96235V4.33109C21.7197 5.24531 20.9211 5.9896 19.9401 5.9896V5.9896ZM24.4677 5.9896C24.2529 5.9896 24.0787 5.82804 24.0787 5.62842C24.0787 5.4284 24.2529 5.26663 24.4677 5.26663C25.0209 5.26663 25.4704 4.84687 25.4704 4.33109V1.96235C25.4704 1.44876 25.0209 1.03079 24.4677 1.03079C23.9135 1.03079 23.4627 1.44876 23.4627 1.96235C23.4627 2.16197 23.2887 2.32374 23.0737 2.32374C22.8587 2.32374 22.6845 2.16197 22.6845 1.96235C22.6845 1.05031 23.4848 0.307816 24.4677 0.307816C25.4502 0.307816 26.2492 1.05031 26.2492 1.96235V4.33109C26.2492 5.24531 25.4502 5.9896 24.4677 5.9896V5.9896ZM28.9973 5.9896C28.7816 5.9896 28.6076 5.82804 28.6076 5.62842C28.6076 5.4284 28.7816 5.26663 28.9973 5.26663C29.5498 5.26663 29.9993 4.84687 29.9993 4.33109V1.96235C29.9993 1.44876 29.5498 1.03079 28.9973 1.03079C28.4429 1.03079 27.9923 1.44876 27.9923 1.96235C27.9923 2.16197 27.8181 2.32374 27.6024 2.32374C27.3877 2.32374 27.2134 2.16197 27.2134 1.96235C27.2134 1.05031 28.0137 0.307816 28.9973 0.307816C29.9789 0.307816 30.7779 1.05031 30.7779 1.96235V4.33109C30.7779 5.24531 29.9789 5.9896 28.9973 5.9896V5.9896Z" fill="#252422"/>
<path d="M37.8713 34.9042L41.4016 41.6504L44.9341 34.9042V9.48395H37.8713V34.9042V34.9042ZM41.4016 42.8388C41.2527 42.8388 41.1176 42.7593 41.0517 42.6354L37.1315 35.1454C37.1057 35.096 37.0927 35.0428 37.0927 34.9877V9.12256C37.0927 8.92254 37.2667 8.76097 37.4816 8.76097H45.3231C45.5379 8.76097 45.7121 8.92254 45.7121 9.12256V34.9877C45.7121 35.0428 45.699 35.096 45.6733 35.1454L41.752 42.6354C41.6868 42.7593 41.551 42.8388 41.4016 42.8388Z" fill="#252422"/>
<path d="M40.8635 40.6218L41.4014 41.6504L41.9408 40.6218C41.5773 40.5834 41.2237 40.5822 40.8635 40.6218ZM41.4014 42.8388C41.2524 42.8388 41.1173 42.7593 41.0514 42.6354L39.9357 40.5023C39.8836 40.4023 39.8836 40.2861 39.9357 40.1861C39.9883 40.0865 40.087 40.0148 40.2033 39.9909C41.0006 39.8307 41.7916 39.8297 42.6003 39.9909C42.717 40.0144 42.816 40.0865 42.8679 40.1853C42.9207 40.2855 42.9207 40.4023 42.8687 40.5023L41.7517 42.6354C41.6865 42.7593 41.5507 42.8388 41.4014 42.8388Z" fill="#252422"/>
<path d="M45.4086 35.3596C45.3414 35.3596 45.2738 35.3432 45.211 35.3088L43.9234 34.6019L43.1051 35.2606C42.968 35.3701 42.7693 35.3789 42.6221 35.2807L41.3317 34.4153L40.4396 35.2432C40.3666 35.3112 40.2673 35.3488 40.1643 35.3488C40.0607 35.3488 39.962 35.3106 39.889 35.2428L38.9988 34.4157L37.7096 35.2799C37.534 35.3978 37.2918 35.3606 37.1665 35.1994C37.0403 35.0376 37.0792 34.8115 37.2534 34.6954L38.8115 33.6499C38.966 33.5455 39.1791 33.561 39.3149 33.6871L40.1643 34.4768L41.0155 33.6865C41.1509 33.561 41.3646 33.5459 41.5182 33.6495L42.8281 34.5274L43.6254 33.885C43.7522 33.7837 43.9361 33.7694 44.0785 33.8471L45.6079 34.687C45.7922 34.7882 45.8538 35.01 45.7444 35.1821C45.6718 35.296 45.542 35.3596 45.4086 35.3596V35.3596Z" fill="#252422"/>
<path d="M39.0546 34.4123C38.8396 34.4123 38.6654 34.2507 38.6654 34.0507V9.12256C38.6654 8.92254 38.8396 8.76097 39.0546 8.76097C39.27 8.76097 39.4442 8.92254 39.4442 9.12256V34.0507C39.4442 34.2507 39.27 34.4123 39.0546 34.4123Z" fill="#252422"/>
<path d="M41.2586 34.5364C41.0443 34.5364 40.8703 34.3756 40.8694 34.1766L40.7493 9.12435C40.7486 8.92433 40.9216 8.76197 41.1372 8.76097C41.1378 8.76097 41.1382 8.76097 41.1389 8.76097C41.3526 8.76097 41.5268 8.92154 41.5281 9.12116L41.6476 34.1734C41.6483 34.3731 41.4753 34.5352 41.2603 34.5364H41.2586V34.5364Z" fill="#252422"/>
<path d="M43.7164 34.8275C43.5016 34.8275 43.3271 34.6659 43.3271 34.4659V9.12256C43.3271 8.92254 43.5016 8.76097 43.7164 8.76097C43.9318 8.76097 44.106 8.92254 44.106 9.12256V34.4659C44.106 34.6659 43.9318 34.8275 43.7164 34.8275Z" fill="#252422"/>
<path d="M37.8713 8.76097H44.9309V7.23294C44.9309 6.39044 44.1937 5.70452 43.2878 5.70452H39.5157C38.6089 5.70452 37.8713 6.39044 37.8713 7.23294V8.76097ZM45.3201 9.48395H37.4816C37.2667 9.48395 37.0927 9.32218 37.0927 9.12256V7.23294C37.0927 5.99179 38.1796 4.98194 39.5157 4.98194H43.2878C44.6226 4.98194 45.7091 5.99179 45.7091 7.23294V9.12256C45.7091 9.32218 45.5351 9.48395 45.3201 9.48395Z" fill="#252422"/>
</svg>
