<svg width="46" height="45" viewBox="0 0 46 45" fill="none" xmlns="http://www.w3.org/2000/svg">
<path d="M4.61512 31.7305H41.6632V8.8665H4.61512V31.7305V31.7305ZM42.0324 32.5216H4.24536C4.04126 32.5216 3.87561 32.3447 3.87561 32.1261V8.47044C3.87561 8.25225 4.04126 8.07516 4.24536 8.07516H42.0324C42.2367 8.07516 42.4022 8.25225 42.4022 8.47044V32.1261C42.4022 32.3447 42.2367 32.5216 42.0324 32.5216Z" fill="#252422"/>
<path d="M1.37832 8.07516H44.8998V5.46093H1.37832V8.07516V8.07516ZM45.269 8.8665H1.00856C0.804449 8.8665 0.638794 8.68941 0.638794 8.47044V5.06565C0.638794 4.84687 0.804449 4.66998 1.00856 4.66998H45.269C45.4731 4.66998 45.6388 4.84687 45.6388 5.06565V8.47044C45.6388 8.68941 45.4731 8.8665 45.269 8.8665Z" fill="#252422"/>
<path d="M14.2666 43.0703L14.9254 43.7714L20.8163 37.4801C20.8857 37.4058 20.9797 37.3645 21.0774 37.3645H25.3779C25.4763 37.3645 25.5701 37.4058 25.6395 37.4801L31.5288 43.7708L32.1841 43.0709L26.2686 36.746C26.1992 36.672 26.16 36.5716 26.16 36.4662V32.5216H20.1126V36.656C20.1126 36.7612 20.0735 36.8615 20.004 36.9359L14.2666 43.0703V43.0703ZM31.5288 44.7251C31.4344 44.7251 31.34 44.6867 31.2676 44.6095L25.2248 38.1555H21.2303L15.1877 44.6095C15.0431 44.764 14.8099 44.7632 14.6654 44.6099L13.4821 43.3512C13.4121 43.277 13.3737 43.1761 13.3737 43.0715C13.3729 42.9665 13.4121 42.8653 13.4817 42.7913L19.3731 36.4918V32.1261C19.3731 31.9074 19.5388 31.7305 19.7429 31.7305H26.5298C26.7341 31.7305 26.8995 31.9074 26.8995 32.1261V36.3028L32.9679 42.7913C33.0373 42.8653 33.0765 42.9665 33.0765 43.0709C33.0765 43.1761 33.0373 43.2764 32.9679 43.3506L31.7904 44.6095C31.7181 44.6867 31.6237 44.7251 31.5288 44.7251V44.7251Z" fill="#252422"/>
<path d="M30.8608 28.0969H32.78V14.4834H30.8608V28.0969ZM33.1497 28.8877H30.4909C30.2873 28.8877 30.1218 28.7106 30.1218 28.4922V14.0881C30.1218 13.8692 30.2873 13.6923 30.4909 13.6923H33.1497C33.354 13.6923 33.5195 13.8692 33.5195 14.0881V28.4922C33.5195 28.7106 33.354 28.8877 33.1497 28.8877Z" fill="#252422"/>
<path d="M26.5245 28.097H28.4386V16.2718H26.5245V28.097V28.097ZM28.8078 28.8877H26.1548C25.9505 28.8877 25.785 28.7106 25.785 28.4922V15.8766C25.785 15.6584 25.9505 15.4813 26.1548 15.4813H28.8078C29.0121 15.4813 29.1776 15.6584 29.1776 15.8766V28.4922C29.1776 28.7106 29.0121 28.8877 28.8078 28.8877Z" fill="#252422"/>
<path d="M22.1819 28.097H24.0959V18.0055H22.1819V28.097ZM24.4657 28.8877H21.8121C21.608 28.8877 21.4424 28.7106 21.4424 28.4922V17.6104C21.4424 17.3914 21.608 17.2144 21.8121 17.2144H24.4657C24.67 17.2144 24.8355 17.3914 24.8355 17.6104V28.4922C24.8355 28.7106 24.67 28.8877 24.4657 28.8877Z" fill="#252422"/>
<path d="M17.84 28.097H19.7535V20.4239H17.84V28.097ZM20.1233 28.8877H17.4703C17.266 28.8877 17.1007 28.7106 17.1007 28.4922V20.0287C17.1007 19.8103 17.266 19.6336 17.4703 19.6336H20.1233C20.3276 19.6336 20.4931 19.8103 20.4931 20.0287V28.4922C20.4931 28.7106 20.3276 28.8877 20.1233 28.8877Z" fill="#252422"/>
<path d="M13.4974 28.097H15.4122V22.9476H13.4974V28.097ZM15.7819 28.8877H13.1278C12.9235 28.8877 12.7581 28.7106 12.7581 28.4922V22.5517C12.7581 22.3333 12.9235 22.1566 13.1278 22.1566H15.7819C15.9855 22.1566 16.1511 22.3333 16.1511 22.5517V28.4922C16.1511 28.7106 15.9855 28.8877 15.7819 28.8877Z" fill="#252422"/>
<path d="M34.953 30.6486H11.3193C11.115 30.6486 10.9497 30.4716 10.9497 30.2534C10.9497 30.0344 11.115 29.8575 11.3193 29.8575H34.953C35.1573 29.8575 35.3226 30.0344 35.3226 30.2534C35.3226 30.4716 35.1573 30.6486 34.953 30.6486Z" fill="#252422"/>
<path d="M13.1335 20.4349C12.982 20.4349 12.8399 20.3345 12.7858 20.1728C12.7164 19.9679 12.8159 19.7411 13.0083 19.6675C13.1078 19.6291 22.9926 15.7817 27.3278 10.3867C27.4609 10.2213 27.6934 10.2012 27.8494 10.344C28.0041 10.487 28.0223 10.7363 27.8891 10.9017C23.4254 16.4555 13.6722 20.2525 13.2585 20.4113C13.2175 20.4271 13.1754 20.4349 13.1335 20.4349V20.4349Z" fill="#252422"/>
<path d="M27.5565 13.4569C27.3522 13.4569 27.1867 13.28 27.1867 13.0617V11.1024L25.4682 11.1121C25.4677 11.1121 25.4671 11.1121 25.4666 11.1121C25.2634 11.1121 25.0981 10.9364 25.0968 10.7188C25.0957 10.5004 25.2606 10.3222 25.4649 10.321L27.5548 10.3101C27.5554 10.3101 27.5559 10.3101 27.5559 10.3101C27.6543 10.3101 27.7482 10.3514 27.8176 10.425C27.8869 10.4992 27.9262 10.6002 27.9262 10.7054V13.0617C27.9262 13.28 27.7607 13.4569 27.5565 13.4569V13.4569Z" fill="#252422"/>
<path d="M22.0673 4.66998H24.2061V2.6589C24.2061 2.02828 23.7261 1.5163 23.136 1.5163C22.5468 1.5163 22.0673 2.02828 22.0673 2.6589V4.66998V4.66998ZM24.5758 5.46093H21.6976C21.4938 5.46093 21.3284 5.28404 21.3284 5.06565V2.6589C21.3284 1.59287 22.139 0.725159 23.136 0.725159C24.1337 0.725159 24.9451 1.59287 24.9451 2.6589V5.06565C24.9451 5.28404 24.7794 5.46093 24.5758 5.46093Z" fill="#252422"/>
</svg>
